<?xml version="1.0" standalone="no"?>
<!DOCTYPE svg PUBLIC "-//W3C//DTD SVG 20010904//EN"
 "http://www.w3.org/TR/2001/REC-SVG-20010904/DTD/svg10.dtd">
<svg version="1.0" xmlns="http://www.w3.org/2000/svg"
 width="1000.000000pt" height="1000.000000pt" viewBox="0 0 1000.000000 1000.000000"
 preserveAspectRatio="xMidYMid meet">
<metadata>
Created by potrace 1.14, written by Peter Selinger 2001-2017
</metadata>
<g transform="translate(0.000000,1000.000000) scale(0.100000,-0.100000)"
fill="#000000" stroke="none">
<path d="M4840 7504 c-19 -2 -78 -9 -130 -15 -428 -48 -853 -217 -1204 -478
-85 -64 -95 -74 -84 -90 6 -11 16 -17 22 -15 16 6 39 45 31 52 -4 4 -11 -1
-16 -11 -6 -9 -15 -15 -20 -11 -17 10 29 36 51 29 11 -4 20 -2 20 4 0 6 5 11
11 11 17 0 36 24 31 39 -3 10 0 12 12 8 9 -4 22 -2 29 3 48 41 62 50 73 50 7
0 21 2 31 6 10 3 4 -3 -13 -13 -62 -36 -176 -120 -182 -136 -2 -4 -23 -20 -46
-36 -40 -28 -42 -28 -42 -9 1 12 -5 23 -11 25 -8 3 -13 -4 -13 -17 0 -17 -3
-20 -12 -12 -10 7 -26 -1 -59 -32 -41 -37 -45 -44 -30 -54 13 -10 11 -11 -13
-5 -20 4 -27 3 -22 -6 4 -6 1 -11 -7 -11 -26 0 -92 -93 -80 -113 16 -25 8 -47
-33 -91 -23 -26 -45 -60 -49 -76 -3 -15 -13 -31 -21 -34 -8 -3 -14 -12 -14
-20 0 -10 6 -13 16 -9 9 3 20 0 24 -7 5 -8 17 1 38 31 38 55 111 133 118 126
3 -3 -5 -16 -18 -30 -44 -47 -80 -92 -101 -129 -24 -42 -31 -45 -53 -23 -20
19 -34 19 -60 -3 -24 -20 -39 -79 -22 -84 6 -2 4 -11 -7 -21 -9 -10 -15 -21
-12 -24 11 -10 32 4 47 33 8 15 25 38 38 51 l24 24 -7 -23 c-4 -13 -18 -40
-32 -60 -27 -40 -45 -73 -89 -158 -15 -30 -33 -62 -39 -70 -7 -8 -15 -26 -18
-40 -3 -14 -23 -77 -46 -141 -23 -64 -39 -123 -36 -131 8 -19 35 -19 35 0 0 9
2 13 5 11 4 -5 -20 -157 -30 -189 -11 -36 -35 -195 -46 -310 -20 -208 1 -466
56 -709 47 -203 180 -515 313 -729 22 -37 31 -60 26 -74 -5 -16 -3 -20 9 -15
11 4 17 -5 23 -36 4 -23 8 -48 8 -55 1 -8 11 -22 24 -32 12 -10 22 -23 22 -29
0 -6 4 -11 10 -11 5 0 17 -14 26 -31 14 -27 103 -122 177 -188 28 -24 35 -41
17 -41 -5 0 -10 5 -10 10 0 18 -53 33 -73 21 -20 -13 -54 5 -97 50 -32 33 -80
47 -80 23 0 -9 -7 -22 -16 -29 -12 -8 -15 -20 -10 -38 8 -33 49 -78 67 -74 8
2 11 2 7 0 -4 -2 -4 -12 0 -21 5 -15 2 -15 -23 2 -38 25 -55 42 -55 55 0 6 -7
11 -15 11 -8 0 -15 6 -15 13 0 7 -9 18 -20 25 -26 16 -25 4 2 -25 17 -18 19
-26 10 -32 -10 -6 -9 -11 4 -22 16 -12 17 -12 11 4 -9 25 1 21 34 -14 36 -39
37 -46 2 -25 -57 34 176 -179 282 -259 333 -249 708 -407 1135 -477 196 -32
565 -32 760 0 354 59 706 194 990 379 58 38 161 96 230 129 527 255 892 675
1061 1222 186 601 57 1269 -342 1774 -37 48 -92 129 -120 180 -443 793 -1253
1283 -2154 1302 -99 3 -196 2 -215 0z m-293 -170 c-3 -3 -12 -4 -19 -1 -8 3
-5 6 6 6 11 1 17 -2 13 -5z m-802 -224 c-3 -5 -11 -10 -16 -10 -6 0 -7 5 -4
10 3 6 11 10 16 10 6 0 7 -4 4 -10z m40 -68 c-6 -5 -50 -37 -100 -72 -49 -35
-97 -69 -105 -76 -102 -87 -201 -175 -227 -204 -17 -19 -35 -31 -40 -27 -13
13 174 186 302 279 75 54 204 130 170 100z m-419 -209 c-11 -11 -19 6 -11 24
8 17 8 17 12 0 3 -10 2 -21 -1 -24z m-133 -130 c-7 -2 -13 -13 -13 -24 0 -10
-7 -19 -15 -19 -15 0 -21 31 -8 43 3 4 16 7 27 6 12 0 15 -3 9 -6z m67 -63 c0
-5 -4 -10 -10 -10 -5 0 -10 -7 -10 -15 0 -8 -7 -15 -15 -15 -19 0 -19 9 2 32
18 20 33 24 33 8z m3333 -31 c15 -20 35 -10 22 11 -3 6 -1 10 4 10 12 0 14
-10 11 -52 -1 -14 4 -29 10 -33 6 -4 15 -17 20 -30 11 -28 53 -38 75 -16 15
15 17 14 31 -3 15 -21 2 -39 -22 -29 -8 3 -12 -7 -11 -31 1 -22 4 -31 9 -23 6
9 13 6 27 -10 29 -35 33 -27 9 15 l-22 37 21 -18 c12 -11 27 -16 33 -12 9 5
10 1 5 -14 -5 -16 -3 -20 8 -15 14 5 34 -29 29 -48 -1 -4 4 -5 11 -3 7 3 24
-17 41 -47 16 -29 35 -60 43 -69 22 -26 153 -290 153 -308 0 -9 4 -21 9 -26
12 -14 47 -126 76 -245 13 -55 27 -104 30 -110 4 -6 8 -36 10 -68 2 -31 11
-115 19 -187 9 -71 16 -156 16 -187 0 -42 4 -59 16 -66 9 -5 14 -15 10 -21 -4
-6 -12 -9 -18 -5 -6 4 -9 -9 -7 -34 2 -23 0 -44 -4 -48 -4 -4 -7 -26 -7 -48 0
-41 -19 -159 -40 -251 -7 -27 -19 -56 -28 -63 -13 -10 -14 -14 -4 -21 19 -11
-25 -142 -50 -149 -10 -2 -18 -13 -18 -23 0 -10 -4 -21 -10 -24 -5 -3 -10 1
-10 9 0 9 -5 16 -11 16 -5 0 -8 4 -4 9 3 5 1 12 -4 15 -10 6 -41 -53 -41 -77
0 -9 -5 -19 -10 -22 -6 -4 -8 -10 -5 -15 3 -4 -2 -13 -10 -20 -8 -6 -19 -28
-26 -48 -7 -20 -21 -50 -32 -67 -10 -16 -16 -21 -11 -10 4 11 7 33 7 48 0 16
5 26 11 24 10 -3 41 52 33 59 -8 9 -70 -67 -71 -87 0 -12 -7 -24 -14 -27 -8
-2 -10 2 -5 15 6 16 5 16 -10 5 -8 -8 -13 -20 -10 -28 3 -8 -1 -14 -8 -14 -8
0 -27 -29 -44 -65 -16 -36 -36 -65 -42 -65 -8 0 -1 21 18 56 16 31 28 58 26
60 -2 2 -17 -2 -33 -10 -16 -7 -48 -17 -72 -20 -38 -6 -43 -4 -40 11 2 11 14
18 33 20 16 1 35 9 41 17 6 9 14 13 17 9 9 -8 47 27 47 43 0 7 5 16 12 20 8 5
9 -2 5 -24 -4 -18 -3 -32 2 -32 7 0 70 64 101 104 14 18 13 19 -3 13 -11 -4
-16 -3 -12 3 3 6 15 10 27 10 14 0 18 5 14 16 -3 8 -2 12 4 9 6 -4 10 6 11 22
0 24 1 25 8 8 7 -18 10 -15 26 20 17 37 44 120 45 138 0 16 -21 -6 -61 -61
-46 -63 -154 -170 -211 -209 -27 -18 -51 -25 -85 -25 -75 0 -103 4 -103 13 0
5 -9 9 -20 9 -14 0 -20 7 -20 24 0 21 -18 38 -44 40 -12 1 -44 56 -45 78 -1 9
5 18 11 20 7 3 2 7 -11 11 -22 5 -23 4 -16 -31 4 -20 21 -61 39 -92 27 -47 41
-60 99 -89 37 -19 67 -38 67 -42 0 -5 -7 -6 -15 -3 -8 4 -15 1 -15 -5 0 -10
14 -15 33 -12 4 0 7 -6 7 -14 0 -10 -10 -15 -27 -15 -42 0 -104 20 -98 31 4 5
-4 9 -17 9 -18 0 -28 10 -42 40 -10 22 -24 40 -32 40 -8 0 -14 7 -14 15 0 8
-3 15 -7 15 -5 0 -13 11 -20 25 -6 14 -7 23 -2 19 5 -3 9 -1 9 5 0 6 -9 15
-20 21 -16 9 -24 6 -43 -12 -26 -26 -97 -35 -141 -18 -36 13 -32 4 6 -16 40
-21 119 -20 130 1 11 18 36 20 34 3 -3 -29 50 -117 77 -129 16 -7 34 -17 40
-23 7 -6 37 -24 67 -40 64 -33 76 -43 67 -52 -4 -4 -15 0 -24 8 -10 9 -29 19
-43 23 -28 8 -53 20 -191 90 -66 33 -102 46 -115 41 -15 -6 -16 -9 -4 -16 9
-6 16 -6 18 0 2 4 24 -4 50 -19 26 -15 83 -49 127 -75 44 -26 88 -48 98 -49
32 -2 11 -22 -27 -25 -25 -2 -36 0 -31 7 3 6 12 8 18 5 9 -5 9 -4 0 6 -9 10
-15 10 -31 -2 -19 -13 -19 -14 -2 -36 16 -19 19 -20 24 -5 5 13 9 14 19 3 9
-10 9 -13 0 -17 -7 -3 -13 -11 -13 -19 0 -9 4 -12 10 -9 6 3 7 -1 4 -10 -4 -9
3 -23 17 -35 21 -17 21 -19 4 -13 -11 3 -33 15 -48 26 -16 10 -31 17 -34 13
-6 -6 -106 45 -133 68 -8 7 -59 35 -113 61 -53 27 -102 54 -108 62 -6 7 -17
13 -24 13 -9 0 -12 12 -10 36 4 38 31 104 43 103 4 0 32 -12 62 -27 42 -21 54
-32 52 -47 -2 -18 -2 -19 8 -2 14 23 9 30 -50 68 -51 33 -66 55 -30 46 23 -6
23 -7 9 29 -7 19 -7 35 0 49 5 11 15 38 22 60 15 50 38 87 50 79 5 -3 9 -1 9
5 0 5 -5 11 -12 13 -9 3 -8 18 4 59 13 47 18 54 40 54 23 -1 24 2 14 20 -16
28 -28 35 -53 29 -22 -6 -22 -6 -21 139 0 88 -4 152 -11 165 -6 11 -11 42 -11
67 0 128 -138 442 -261 595 -11 14 -28 37 -37 53 -9 15 -21 27 -27 27 -5 0
-37 27 -69 60 -52 53 -127 111 -187 146 -10 6 -27 18 -36 26 -10 8 -26 18 -36
21 -11 4 -15 12 -11 18 5 8 3 9 -5 4 -13 -7 -81 24 -81 37 0 12 18 9 43 -6 12
-8 38 -17 57 -21 19 -4 41 -12 48 -17 7 -6 12 -6 12 -1 0 14 -22 33 -40 33
-28 0 -42 21 -26 39 8 9 31 49 51 89 21 39 42 72 47 72 4 0 8 5 8 12 0 6 12
32 27 57 15 25 32 59 38 75 5 16 16 31 23 34 17 5 15 -19 -3 -32 -9 -7 -17
-29 -18 -53 -1 -32 -5 -40 -17 -36 -8 2 -6 -1 4 -8 15 -9 21 -9 24 -1 6 19 22
14 22 -8 0 -11 4 -20 9 -20 5 0 7 9 4 19 -4 16 -1 19 17 14 23 -6 23 -24 -1
-75 -31 -68 -40 -78 -65 -72 -24 6 -34 -9 -14 -21 6 -3 10 0 10 7 0 10 3 9 9
-1 6 -10 3 -27 -9 -50 -45 -87 -50 -105 -32 -115 9 -5 27 -19 38 -32 12 -13
24 -24 28 -24 19 0 236 -218 236 -237 0 -8 16 -29 35 -48 56 -57 57 -42 1 22
-18 21 -18 23 -1 29 10 4 26 2 37 -5 11 -7 22 -10 25 -7 10 9 -58 37 -77 31
-11 -4 -20 -3 -21 2 0 8 -8 73 -13 103 -1 9 -4 20 -8 25 -3 6 -8 24 -12 40 -4
17 -15 38 -23 48 -12 13 -13 17 -3 17 9 0 7 7 -6 23 -11 12 -29 41 -39 65 -10
24 -28 51 -39 60 -12 9 -21 27 -20 40 1 12 -3 22 -7 22 -5 0 -9 -9 -9 -20 0
-11 -4 -20 -10 -20 -5 0 -6 -8 -3 -17 5 -12 2 -15 -10 -10 -12 4 -17 1 -17
-11 0 -10 -5 -23 -12 -30 -17 -17 3 -15 28 3 26 18 37 9 21 -16 -13 -22 0 -40
14 -19 8 13 12 12 24 -4 8 -11 12 -28 9 -39 -4 -14 -1 -17 12 -15 9 2 19 -3
21 -9 3 -7 0 -13 -6 -13 -6 0 -11 -5 -11 -11 0 -6 9 -8 20 -4 26 8 26 -11 0
-25 -11 -6 -18 -15 -15 -21 4 -6 13 -5 25 1 27 14 28 14 39 -27 21 -75 15 -81
-33 -32 -24 24 -52 51 -63 59 -10 8 -32 26 -49 40 -17 14 -43 34 -58 44 -14
10 -26 25 -26 32 0 16 79 182 89 188 4 3 13 23 21 45 11 34 18 41 39 41 14 0
82 27 152 60 134 64 149 69 129 45 -7 -8 -20 -15 -29 -15 -9 0 -31 -13 -49
-29 -32 -29 -41 -51 -22 -51 5 0 7 -7 4 -15 -4 -8 -10 -15 -15 -15 -5 0 -9 7
-9 15 0 8 -7 15 -15 15 -8 0 -15 -4 -15 -9 0 -4 -16 -25 -35 -45 -19 -21 -35
-42 -35 -47 0 -5 -7 -9 -15 -9 -9 0 -15 6 -14 13 1 6 1 23 0 36 -1 19 -3 21
-16 11 -9 -8 -13 -23 -10 -44 7 -48 40 -145 56 -165 25 -31 49 -78 42 -85 -3
-3 -2 -6 4 -6 12 0 57 -99 49 -107 -8 -8 14 -44 23 -38 5 2 12 -10 16 -28 6
-31 7 -31 17 -9 11 22 37 30 39 12 1 -5 2 -15 3 -22 2 -17 26 -22 26 -5 0 10
16 16 55 20 32 3 67 14 84 26 18 13 32 17 36 11 3 -5 15 -10 25 -10 10 0 22
-5 26 -12 4 -6 3 -8 -4 -5 -15 10 -42 -3 -42 -19 0 -8 4 -14 8 -14 4 0 6 -22
5 -50 -4 -57 10 -65 46 -27 14 16 19 30 15 42 -6 14 -4 17 9 12 35 -13 25 39
-13 69 -8 7 -12 15 -8 19 4 4 24 -10 45 -30 50 -48 118 -82 182 -91 48 -6 72
-24 33 -24 -21 0 -105 -88 -129 -134 -9 -17 -26 -41 -39 -52 -18 -17 -25 -19
-36 -9 -18 17 -97 35 -104 24 -3 -5 4 -9 14 -9 24 0 63 -20 87 -44 18 -18 19
-18 27 3 8 23 28 27 46 9 10 -10 5 -16 -20 -31 l-33 -18 40 6 c22 4 49 8 60
10 11 2 35 4 53 4 17 1 32 5 32 10 0 5 -18 8 -41 6 -41 -4 -53 15 -13 21 60
10 90 18 101 26 7 5 18 6 24 2 9 -5 7 -11 -6 -20 -10 -8 -15 -17 -10 -21 4 -5
10 -2 12 4 3 10 10 10 25 2 18 -9 18 -8 9 10 -16 28 -14 35 5 16 12 -12 19
-13 30 -4 10 8 19 5 38 -14 14 -14 27 -22 30 -19 3 3 6 -2 6 -11 0 -10 5 -17
11 -17 8 0 8 -4 -1 -15 -6 -8 -15 -14 -18 -13 -7 1 -50 -15 -83 -32 -9 -5 -34
-12 -55 -15 -22 -4 -48 -10 -59 -15 -11 -5 -46 -20 -78 -32 -63 -24 -70 -35
-39 -56 16 -10 21 -10 33 4 13 16 11 17 -13 12 -16 -3 -28 -1 -28 3 0 9 30 13
59 10 7 -2 10 2 6 8 -4 7 4 11 22 10 15 0 22 -3 15 -6 -10 -4 -10 -8 0 -21 11
-13 10 -15 -4 -9 -14 5 -18 1 -18 -14 0 -15 -5 -19 -15 -15 -9 3 -15 0 -15 -8
0 -7 -9 -25 -21 -40 -11 -14 -16 -26 -10 -26 6 0 15 9 21 21 6 11 36 36 66 55
30 19 54 40 54 47 0 8 3 9 8 1 4 -6 17 -8 28 -5 17 5 19 10 13 26 -4 11 -8 14
-8 7 -1 -16 -56 -13 -56 3 0 19 61 17 81 -2 18 -18 38 -24 87 -25 20 -1 27 -6
27 -20 0 -15 -5 -18 -22 -13 -22 6 -22 5 -4 -9 20 -16 44 -4 42 23 -1 7 5 16
12 18 7 3 10 -1 6 -11 -4 -11 -1 -16 11 -16 9 0 13 5 10 10 -3 6 -2 10 4 10 6
0 15 -9 21 -20 6 -12 22 -20 38 -21 17 -1 21 -3 9 -6 -14 -4 -16 -11 -11 -41
9 -50 17 -56 12 -9 -3 26 0 37 9 37 7 0 13 -8 13 -18 0 -11 9 -27 20 -37 11
-10 20 -24 20 -32 0 -7 5 -13 10 -13 6 0 10 -9 10 -20 0 -11 4 -20 9 -20 5 0
13 -9 16 -20 3 -11 11 -20 16 -20 6 0 6 7 0 18 -13 25 -21 122 -10 122 5 0 9
-4 9 -10 0 -5 6 -10 14 -10 8 0 17 -6 19 -12 3 -8 6 -7 6 4 1 9 -3 20 -9 23
-5 3 -10 11 -10 16 0 6 5 7 10 4 6 -3 10 0 10 8 0 16 -27 31 -47 28 -24 -4
-13 27 12 33 14 4 25 14 25 22 0 10 -6 14 -15 10 -9 -3 -15 0 -15 9 0 8 5 15
10 15 6 0 10 7 10 15 0 9 -9 15 -25 15 -14 0 -25 5 -25 10 0 6 7 10 16 10 14
0 15 7 10 41 -4 26 -3 38 4 34 5 -3 10 1 10 9 0 9 -12 18 -27 22 -52 11 -53
12 -52 61 2 61 8 85 20 77 5 -3 9 -11 8 -17 -3 -23 1 -37 11 -37 18 0 -14 211
-40 260 -6 11 -24 59 -41 107 -48 137 -144 319 -247 471 -19 28 -36 62 -38 75
-1 12 -3 26 -3 31 -1 4 -7 6 -15 3 -12 -5 -56 42 -56 60 0 4 -21 27 -47 51
-27 24 -40 41 -31 38 12 -3 15 -1 11 10 -8 21 14 17 30 -7z m-1057 -34 c-22
-17 -36 -19 -36 -7 0 14 12 22 34 22 21 -1 21 -1 2 -15z m494 -15 c0 -5 -2
-10 -4 -10 -3 0 -8 5 -11 10 -3 6 -1 10 4 10 6 0 11 -4 11 -10z m243 -11 c20
-5 37 -14 37 -19 0 -6 -19 -2 -42 7 -67 25 -64 32 5 12z m-1317 -14 c-22 -17
-46 -20 -46 -6 0 10 22 18 50 20 11 0 10 -4 -4 -14z m164 10 c0 -13 -64 -75
-79 -75 -11 0 -2 13 26 40 40 38 53 46 53 35z m30 -52 c0 -18 -53 -93 -65 -93
-11 0 -6 14 17 50 30 45 48 61 48 43z m450 1 c0 -11 -45 -43 -60 -44 -9 0 -20
-4 -25 -8 -18 -16 -117 -52 -141 -52 -13 0 -24 -4 -24 -8 0 -5 -6 -9 -14 -9
-21 0 -88 -33 -114 -56 -32 -29 -47 -9 -18 24 33 38 70 56 177 83 53 14 118
36 145 49 49 25 74 32 74 21z m88 -35 c-6 -26 -54 -69 -78 -70 -23 -2 -23 -2
-2 -6 12 -2 22 -11 22 -19 0 -8 8 -14 18 -15 12 0 10 -3 -8 -11 -14 -6 -31
-10 -37 -9 -7 1 -13 -5 -13 -14 0 -8 3 -14 8 -14 27 5 35 -2 16 -15 -10 -8
-16 -18 -12 -21 11 -11 -10 -45 -27 -45 -8 0 -15 -5 -15 -11 0 -5 5 -7 10 -4
15 9 13 2 -12 -44 -12 -23 -27 -41 -35 -41 -14 0 -6 30 11 42 6 4 5 12 -3 21
-6 8 -10 28 -7 43 7 38 47 124 58 124 4 0 8 7 8 15 0 8 -4 15 -9 15 -9 0 -61
-60 -61 -71 0 -3 -8 -24 -17 -45 -9 -22 -17 -46 -18 -54 -1 -8 -2 -23 -3 -32
-2 -22 -28 -13 -43 13 -9 18 -3 34 58 144 7 12 29 30 50 41 21 10 60 36 87 57
53 40 57 42 54 26z m247 -59 c3 -5 1 -10 -5 -10 -7 0 -9 -7 -6 -16 3 -8 2 -12
-3 -9 -11 6 -10 45 1 45 4 0 10 -4 13 -10z m-769 -37 c-10 -10 -19 5 -10 18 6
11 8 11 12 0 2 -7 1 -15 -2 -18z m874 23 c0 -3 -4 -8 -10 -11 -5 -3 -10 -1
-10 4 0 6 5 11 10 11 6 0 10 -2 10 -4z m300 -7 c10 -7 -10 -8 -66 -3 -56 4
-84 3 -88 -5 -4 -6 -12 -9 -17 -5 -5 3 -7 10 -4 15 8 12 156 11 175 -2z m-512
-44 c-10 -22 -28 -35 -28 -20 0 5 33 45 37 45 1 0 -3 -11 -9 -25z m443 -6 c27
-12 49 -25 49 -30 0 -12 -13 -11 -25 0 -6 5 -37 18 -70 29 -45 16 -53 21 -32
21 16 1 51 -9 78 -20z m210 4 c13 -15 12 -15 -8 -4 -24 12 -29 21 -14 21 5 0
15 -7 22 -17z m-1032 -30 c-23 -21 -51 -46 -61 -55 -23 -23 -27 -23 -36 3 -8
21 -9 21 -40 -6 -23 -20 -32 -23 -32 -12 0 9 24 27 55 42 30 15 55 31 55 36 0
13 39 28 73 28 l29 1 -43 -37z m311 27 c0 -5 -2 -10 -4 -10 -3 0 -8 5 -11 10
-3 6 -1 10 4 10 6 0 11 -4 11 -10z m426 -38 c-10 -10 -29 15 -21 28 6 9 10 8
17 -4 6 -10 7 -20 4 -24z m-266 18 c0 -5 -5 -10 -11 -10 -5 0 -7 5 -4 10 3 6
8 10 11 10 2 0 4 -4 4 -10z m490 -15 c14 -19 14 -19 -2 -6 -10 7 -18 18 -18
24 0 6 1 8 3 6 1 -2 9 -13 17 -24z m-536 -16 c-30 -12 -37 -10 -24 5 6 8 19
12 27 9 14 -6 14 -8 -3 -14z m244 -1 c7 -7 12 -34 12 -60 0 -46 1 -48 21 -38
11 7 22 10 23 8 2 -2 16 -25 31 -51 18 -32 47 -61 83 -85 44 -29 65 -52 97
-109 78 -138 150 -201 237 -208 24 -2 41 -6 40 -9 -2 -3 -6 -14 -9 -24 -4 -16
-12 -18 -61 -14 -31 3 -73 13 -92 23 -43 23 -107 84 -115 110 -9 28 -23 23
-17 -6 3 -19 1 -24 -10 -20 -9 4 -20 16 -26 29 -5 12 -16 23 -24 23 -7 0 -22
4 -33 9 -19 7 -19 7 -2 -13 17 -19 16 -21 -3 -46 -24 -30 -72 -48 -115 -43
-16 2 -38 4 -47 5 -10 0 -31 13 -46 28 l-29 26 27 64 c15 35 37 74 48 86 42
44 23 51 -25 9 -22 -18 -33 -37 -33 -54 0 -15 -5 -30 -10 -33 -6 -4 -8 -15 -5
-26 4 -11 2 -19 -4 -19 -6 0 -11 3 -11 8 0 4 -3 18 -7 31 -4 16 -3 22 5 17 7
-4 7 3 -1 24 -6 16 -17 30 -23 30 -7 0 -10 8 -7 19 3 12 -5 26 -23 40 -14 11
-24 21 -20 21 3 0 -8 23 -25 51 -17 27 -28 53 -25 57 4 4 25 6 46 6 22 -1 37
2 34 7 -3 5 -12 9 -20 9 -8 0 -14 5 -14 11 0 7 12 8 33 4 30 -6 31 -5 13 10
-14 10 -17 18 -10 25 7 7 16 4 29 -10 21 -23 40 -27 31 -5 -3 8 -1 15 3 15 25
0 41 -15 51 -46 6 -19 16 -34 21 -34 5 0 9 -6 9 -14 0 -7 7 -19 15 -26 8 -7
15 -21 15 -31 0 -12 7 -19 19 -19 11 0 23 -4 26 -10 3 -5 11 -10 16 -10 6 0
-7 17 -27 38 -37 38 -84 129 -84 164 0 10 -4 16 -10 13 -11 -7 -12 0 -4 33 7
25 15 27 32 10z m-928 -10 c0 -6 -7 -19 -16 -29 -10 -12 -14 -25 -9 -36 5 -12
9 -14 12 -5 5 14 33 17 33 3 0 -8 -33 -21 -56 -21 -21 0 -24 30 -6 65 16 33
42 47 42 23z m1114 -16 c53 -21 50 -37 -5 -22 -19 5 -51 11 -71 14 -41 5 -58
13 -58 26 0 14 80 3 134 -18z m-1040 -28 c3 -9 4 -20 0 -25 -8 -14 -24 -11
-24 6 0 8 -5 15 -11 15 -5 0 -7 5 -4 10 9 15 32 12 39 -6z m71 -24 c5 -21 13
-30 26 -30 10 0 19 -4 19 -10 0 -5 -11 -9 -25 -8 -19 2 -25 8 -25 25 0 23 -10
30 -24 16 -10 -11 -37 -12 -30 -2 3 5 10 7 15 4 5 -4 10 -1 10 4 1 6 3 16 4
21 1 6 3 13 4 16 3 14 20 -9 26 -36z m75 24 c0 -8 -4 -12 -10 -9 -5 3 -10 10
-10 16 0 5 5 9 10 9 6 0 10 -7 10 -16z m938 -44 c23 -7 42 -17 42 -21 0 -4 12
-22 26 -39 30 -35 28 -45 -8 -31 -13 5 -52 7 -86 4 -51 -4 -62 -3 -62 10 0 16
40 27 96 27 49 0 42 18 -11 26 -55 8 -95 -1 -95 -22 0 -8 -5 -12 -11 -8 -8 4
-8 9 0 17 17 17 13 27 -9 27 -22 0 -27 15 -7 24 17 7 75 1 125 -14z m234 -49
c39 -18 41 -31 4 -31 -11 0 -37 18 -58 41 -43 46 -53 76 -11 35 15 -15 44 -35
65 -45z m-1392 9 c25 -13 40 -13 20 0 -30 19 -2 19 51 -1 72 -27 84 -30 87
-29 8 2 62 -32 62 -40 0 -14 -12 -12 -35 4 -11 7 -37 16 -57 20 -21 4 -38 11
-38 16 0 4 -9 6 -20 3 -11 -3 -20 0 -20 6 0 5 -6 8 -13 5 -18 -6 -90 20 -95
35 -3 10 1 10 17 2 12 -6 30 -15 41 -21z m1488 -36 c-4 -3 -12 5 -18 18 -12
22 -12 22 6 6 10 -10 15 -20 12 -24z m-188 16 c0 -5 -4 -10 -10 -10 -5 0 -10
5 -10 10 0 6 5 10 10 10 6 0 10 -4 10 -10z m-1016 -36 c3 -8 2 -12 -4 -9 -6 3
-10 10 -10 16 0 14 7 11 14 -7z m-644 -9 c0 -9 -6 -12 -15 -9 -8 4 -15 10 -15
15 0 5 7 9 15 9 8 0 15 -7 15 -15z m260 5 c0 -5 -4 -10 -10 -10 -5 0 -10 5
-10 10 0 6 5 10 10 10 6 0 10 -4 10 -10z m415 0 c3 -5 1 -10 -4 -10 -6 0 -11
5 -11 10 0 6 2 10 4 10 3 0 8 -4 11 -10z m1125 -55 c-1 -5 -12 4 -25 20 -14
17 -25 35 -25 40 1 6 12 -3 25 -20 14 -16 25 -34 25 -40z m455 10 c6 -27 5
-26 -14 10 -25 46 -26 55 -7 35 8 -8 18 -28 21 -45z m-2045 35 c0 -5 -4 -10
-10 -10 -5 0 -10 5 -10 10 0 6 5 10 10 10 6 0 10 -4 10 -10z m153 -7 c-6 -15
-4 -16 9 -5 13 11 17 9 23 -15 6 -27 7 -27 21 -9 7 11 17 16 21 12 4 -4 2 -10
-5 -15 -9 -5 -7 -16 7 -44 10 -20 21 -33 25 -30 3 4 13 -2 21 -13 8 -10 15
-14 15 -8 0 6 -11 21 -25 34 -24 23 -36 58 -15 45 6 -3 10 -1 10 4 0 6 7 11
15 11 8 0 15 -4 15 -9 0 -5 10 -7 22 -3 14 3 19 1 14 -6 -3 -6 -2 -13 4 -17 5
-3 10 -2 10 4 0 6 7 8 15 5 9 -4 15 -11 14 -18 -3 -23 1 -36 11 -36 6 0 10 6
10 14 0 8 5 18 11 21 7 5 8 -4 4 -27 -6 -30 -3 -37 19 -51 l26 -17 6 40 c7 46
13 48 40 19 10 -11 14 -20 9 -19 -24 5 -36 -2 -45 -25 -8 -20 -6 -29 11 -46
23 -23 39 -18 20 5 -14 17 -11 51 4 51 6 0 16 4 23 9 28 17 35 -11 12 -48 -12
-20 -20 -42 -17 -49 2 -6 0 -23 -5 -36 -6 -17 -5 -27 4 -32 10 -7 11 -12 1
-29 -15 -22 -17 -40 -5 -40 18 0 30 57 23 108 -6 40 -4 52 6 52 7 0 14 -6 14
-12 1 -7 3 -20 4 -28 1 -8 3 -28 5 -45 1 -19 4 -23 7 -12 5 19 18 22 28 7 11
-18 23 -11 18 10 -3 11 0 20 6 20 10 0 15 -19 12 -45 0 -6 9 -16 20 -24 21
-12 21 -11 15 15 -12 47 -12 49 7 48 9 -1 17 2 17 7 0 13 27 11 35 -2 4 -6 0
-16 -10 -23 -17 -12 -28 -63 -15 -71 4 -3 11 11 14 30 4 19 11 37 17 41 14 9
61 -37 54 -54 -3 -8 0 -10 6 -6 15 9 30 -17 23 -41 -4 -15 -3 -16 4 -6 18 26
34 1 29 -43 -3 -22 -4 -35 -1 -28 3 6 12 12 19 12 7 0 16 -6 18 -12 3 -7 6 -4
7 7 1 17 3 17 11 -5 9 -21 7 -27 -10 -39 -12 -7 -21 -17 -21 -22 0 -5 11 -2
25 7 15 10 25 12 25 5 0 -6 5 -10 12 -8 7 1 13 -8 14 -20 1 -13 -3 -23 -7 -23
-5 0 -9 -4 -9 -10 0 -14 27 -12 34 3 3 6 3 1 0 -12 -5 -19 -3 -23 9 -18 12 4
25 -17 56 -87 70 -159 96 -251 80 -278 -5 -7 -2 -19 7 -29 12 -13 16 -49 17
-165 1 -82 -1 -162 -5 -179 -3 -16 -11 -55 -17 -85 -11 -51 -70 -221 -92 -262
-6 -11 -17 -17 -25 -14 -8 3 -14 -1 -14 -8 0 -8 5 -16 11 -18 7 -2 1 -16 -14
-33 -25 -30 -26 -30 -41 -10 -11 14 -15 16 -16 6 0 -8 7 -23 17 -33 15 -17 15
-18 -5 -18 -15 0 -22 -6 -22 -19 0 -11 -4 -23 -10 -26 -9 -6 -11 -1 -14 38 -1
6 -5 15 -11 20 -6 4 -6 10 2 15 8 5 9 13 3 22 -8 13 -10 13 -10 -1 0 -9 -7
-22 -15 -29 -8 -7 -15 -21 -15 -31 0 -11 -5 -19 -11 -19 -8 0 -8 -4 -2 -12 6
-7 11 -31 11 -52 1 -37 0 -39 -15 -23 -13 12 -14 19 -5 30 10 11 9 17 -3 27
-12 10 -15 10 -15 -4 0 -9 -7 -16 -16 -16 -11 0 -14 6 -9 20 4 11 -1 34 -9 50
-9 17 -23 43 -31 58 -8 16 -24 37 -35 47 -11 10 -20 24 -20 31 0 7 -8 10 -19
7 -20 -5 -38 27 -26 47 3 5 2 10 -4 10 -5 0 -13 -4 -16 -10 -12 -19 -35 -10
-35 13 0 20 -4 23 -30 19 -24 -3 -30 -1 -30 14 0 16 -2 17 -10 4 -8 -12 -10
-9 -10 12 0 18 -7 29 -20 33 -16 5 -19 12 -14 28 9 29 7 27 43 30 34 2 38 12
16 41 -16 21 -11 38 9 30 8 -3 12 -13 9 -24 -6 -23 14 -35 32 -20 12 10 15 10
15 0 0 -9 4 -10 13 -2 10 8 16 6 25 -9 14 -23 29 -25 29 -4 0 8 -6 15 -14 15
-19 0 -16 13 7 28 21 13 27 56 9 68 -8 4 -8 9 1 18 8 8 13 7 20 -4 7 -11 10
-6 9 20 0 19 -3 29 -6 23 -2 -7 -18 -13 -34 -13 -16 0 -29 -4 -29 -10 0 -5 -6
-7 -13 -4 -7 2 -22 -5 -34 -16 -29 -27 -38 -25 -41 6 -1 20 2 25 13 20 9 -3
15 0 15 10 0 8 8 18 18 21 31 12 86 62 78 71 -3 3 -16 -4 -29 -14 -35 -31 -69
-50 -104 -57 -25 -5 -34 -2 -48 16 l-16 22 5 -22 c2 -13 0 -26 -5 -29 -5 -3
-9 6 -9 20 0 13 -6 26 -12 29 -7 2 -9 8 -5 13 4 5 12 2 17 -6 13 -21 22 25 17
90 -4 42 -10 58 -29 74 -32 27 -68 129 -39 112 5 -4 11 -1 13 6 6 16 28 1 28
-19 0 -10 -6 -14 -20 -10 -14 3 -18 1 -13 -6 4 -7 8 -19 8 -27 0 -8 9 -16 20
-18 17 -3 17 -1 5 8 -13 9 -13 12 3 21 9 5 17 16 17 23 0 7 11 22 25 32 14 10
25 24 25 30 0 7 9 14 20 17 11 3 20 12 20 21 0 9 11 18 25 22 14 3 25 11 25
16 0 6 -6 8 -14 5 -10 -4 -16 5 -21 34 -4 21 -11 39 -16 39 -4 0 -6 6 -3 13 3
8 -6 18 -19 24 -26 12 -46 56 -21 46 8 -3 14 -10 14 -17 0 -6 9 -17 20 -24 11
-7 20 -18 20 -26 0 -8 7 -16 15 -20 8 -3 15 -13 15 -23 0 -15 2 -16 10 -3 7
11 4 20 -11 32 -19 16 -19 21 -8 55 17 49 18 50 29 33 14 -22 12 -40 -5 -40
-17 0 -19 -9 -5 -30 7 -11 11 -9 19 14 11 28 6 72 -10 82 -5 3 -9 13 -9 23 0
10 -11 23 -25 29 -16 7 -25 8 -25 1 0 -5 7 -12 15 -15 8 -4 15 -15 15 -25 0
-12 -5 -16 -15 -13 -10 4 -15 0 -15 -11 0 -9 5 -13 10 -10 6 4 10 -6 10 -22
l-1 -28 -19 24 c-11 13 -20 33 -20 45 0 12 -4 26 -10 32 -6 6 -1 19 16 37 l25
27 21 -20 c30 -28 42 -25 22 5 -9 14 -23 25 -30 25 -8 0 -14 7 -14 15 0 8 4
15 9 15 16 0 18 33 5 60 -7 14 -15 33 -18 43 -6 18 -33 34 -43 24 -3 -3 2 -14
11 -23 9 -9 14 -19 10 -23 -4 -3 -9 0 -11 7 -4 10 -9 8 -19 -5 -12 -17 -13
-16 -14 9 0 20 -6 27 -22 30 -13 2 -24 11 -26 23 -2 11 -11 28 -19 37 -12 14
-13 21 -4 31 9 11 6 20 -10 41 -16 21 -21 40 -20 80 1 41 -4 57 -19 71 -20 18
-20 17 -20 -16 0 -25 3 -30 10 -19 15 23 20 6 10 -30 -6 -22 -6 -38 0 -44 6
-6 10 -20 10 -33 0 -14 6 -23 15 -23 8 0 15 -7 15 -15 0 -8 -8 -15 -17 -15
-11 0 -14 -3 -7 -8 11 -7 34 -45 34 -57 0 -3 -10 1 -23 10 -13 8 -27 12 -30 8
-4 -3 -7 -1 -7 5 0 7 -4 12 -10 12 -5 0 -7 -7 -4 -15 4 -8 2 -15 -4 -15 -21 0
-19 26 5 52 25 26 25 26 5 46 -15 15 -17 23 -9 31 8 8 7 11 -5 11 -9 0 -19 8
-23 19 -3 10 -13 18 -23 17 -11 0 -18 7 -20 22 -2 12 -8 22 -13 22 -5 0 -9 7
-9 16 0 8 -5 12 -11 8 -6 -3 -22 6 -36 22 -24 29 -24 29 -18 4 16 -66 17 -90
5 -90 -6 0 -10 -6 -7 -12 2 -7 9 -13 15 -13 11 0 43 -49 42 -64 -1 -3 -18 14
-40 39 -27 30 -36 47 -27 52 6 4 8 10 4 14 -4 4 -1 14 6 22 10 13 9 15 -9 10
-28 -7 -62 18 -46 34 9 9 12 8 12 -5 0 -9 5 -17 11 -17 12 0 3 78 -12 96 -4 5
-6 20 -2 32 3 14 1 22 -7 22 -7 0 -10 -7 -6 -15 7 -20 -23 -33 -35 -14 -5 9
-1 18 14 26 34 19 58 17 50 -4z m247 -3 c0 -5 -4 -10 -10 -10 -5 0 -10 5 -10
10 0 6 5 10 10 10 6 0 10 -4 10 -10z m1074 -35 c36 -24 79 -48 97 -52 24 -7
34 -17 45 -48 16 -48 18 -79 3 -70 -14 9 -33 56 -30 77 1 9 -7 22 -18 27 -27
15 -31 14 -31 -9 0 -11 -4 -20 -10 -20 -5 0 -10 6 -10 14 0 19 -30 42 -52 38
-10 -2 -18 3 -18 10 0 8 -6 22 -13 32 -11 15 -17 16 -35 7 -12 -6 -23 -7 -26
-2 -3 5 -19 8 -36 7 -40 -3 -38 11 3 23 53 15 63 13 131 -34z m622 -20 c14
-33 29 -69 34 -80 24 -57 79 -236 85 -280 4 -27 11 -56 17 -62 6 -7 7 -20 4
-29 -4 -9 -2 -22 3 -28 13 -17 24 -106 13 -106 -6 0 -13 11 -16 25 -4 14 -11
23 -16 20 -9 -6 -13 6 -24 73 -6 37 1 42 14 10 30 -76 -6 86 -51 227 -55 172
-66 200 -84 200 -10 0 -20 6 -23 13 -2 7 0 12 5 11 21 -4 22 3 8 31 -18 35
-19 43 -4 38 6 -2 22 -31 35 -63z m-2269 33 c-3 -8 -6 -5 -6 6 -1 11 2 17 5
13 3 -3 4 -12 1 -19z m85 2 c12 -10 25 -17 30 -14 4 3 8 1 8 -5 0 -5 -4 -13
-10 -16 -5 -3 -10 -2 -10 3 0 5 -11 15 -25 22 -14 7 -25 17 -25 22 0 13 9 10
32 -12z m-122 -39 c0 -12 -6 -9 -20 9 -26 33 -26 48 0 25 11 -10 20 -25 20
-34z m-50 19 c5 0 10 -10 12 -22 2 -15 9 -22 20 -20 9 1 20 -3 24 -9 4 -8 3
-9 -5 -5 -6 4 -19 2 -27 -5 -14 -12 -28 -7 -30 12 -1 5 -2 13 -3 18 0 5 -9 18
-18 27 -17 17 -17 18 0 11 10 -4 22 -7 27 -7z m270 -10 c0 -5 -2 -10 -4 -10
-3 0 -8 5 -11 10 -3 6 -1 10 4 10 6 0 11 -4 11 -10z m85 0 c3 -5 2 -10 -4 -10
-5 0 -13 5 -16 10 -3 6 -2 10 4 10 5 0 13 -4 16 -10z m-227 -58 c7 -12 9 -22
5 -22 -9 0 -53 62 -53 73 0 10 32 -25 48 -51z m1815 26 c9 -31 2 -33 -11 -3
-6 14 -8 25 -3 25 5 0 11 -10 14 -22z m-2023 2 c0 -5 -4 -10 -10 -10 -5 0 -10
5 -10 10 0 6 5 10 10 10 6 0 10 -4 10 -10z m50 0 c0 -5 -7 -10 -15 -10 -8 0
-15 5 -15 10 0 6 7 10 15 10 8 0 15 -4 15 -10z m420 0 c0 -5 -4 -10 -10 -10
-5 0 -10 5 -10 10 0 6 5 10 10 10 6 0 10 -4 10 -10z m-130 -62 c-1 -7 -8 -1
-16 15 -8 15 -19 27 -25 27 -6 0 -7 5 -4 10 8 12 45 -31 45 -52z m80 52 c0 -5
-4 -10 -9 -10 -6 0 -13 5 -16 10 -3 6 1 10 9 10 9 0 16 -4 16 -10z m1307 -8
c-1 -4 9 -18 22 -31 17 -17 25 -20 31 -11 5 8 9 7 14 -5 3 -9 4 -21 0 -26 -3
-5 2 -12 10 -15 9 -3 14 -10 11 -15 -8 -12 42 -42 60 -35 8 3 15 1 15 -4 0 -6
-6 -10 -12 -11 -10 0 -10 -2 0 -6 6 -2 12 -12 12 -20 0 -10 -6 -13 -16 -9 -9
3 -20 6 -24 6 -19 0 -96 88 -122 139 -33 63 -32 62 -13 55 8 -3 13 -9 12 -12z
m-1290 -14 c-3 -8 -6 -5 -6 6 -1 11 2 17 5 13 3 -3 4 -12 1 -19z m353 -4 c0
-8 -7 -14 -15 -14 -15 0 -21 21 -9 33 10 9 24 -2 24 -19z m-540 6 c0 -5 -4
-10 -10 -10 -5 0 -10 5 -10 10 0 6 5 10 10 10 6 0 10 -4 10 -10z m2190 -39 c0
-21 -16 -2 -25 29 -7 24 -7 24 9 5 8 -11 16 -27 16 -34z m-2420 15 c14 -18 14
-19 -8 -7 -12 7 -20 17 -16 22 3 6 7 9 8 7 1 -2 8 -12 16 -22z m40 9 c0 -8 -4
-15 -10 -15 -5 0 -10 7 -10 15 0 8 5 15 10 15 6 0 10 -7 10 -15z m330 11 c0
-3 -4 -8 -10 -11 -5 -3 -10 -1 -10 4 0 6 5 11 10 11 6 0 10 -2 10 -4z m-495
-26 c3 -5 1 -10 -4 -10 -6 0 -11 5 -11 10 0 6 2 10 4 10 3 0 8 -4 11 -10z
m240 0 c3 -5 2 -10 -4 -10 -5 0 -13 5 -16 10 -3 6 -2 10 4 10 5 0 13 -4 16
-10z m59 -5 c3 -9 0 -15 -9 -15 -8 0 -15 7 -15 15 0 8 4 15 9 15 5 0 11 -7 15
-15z m-228 -7 c4 -7 3 -8 -4 -4 -7 4 -12 2 -12 -4 0 -6 -4 -8 -10 -5 -5 3 -10
10 -10 16 0 13 27 11 36 -3z m339 2 c3 -6 -1 -7 -9 -4 -18 7 -21 14 -7 14 6 0
13 -4 16 -10z m70 -29 c-3 -12 -11 -21 -16 -21 -10 0 -12 21 -3 45 10 24 27 2
19 -24z m66 18 c10 -11 22 -18 28 -15 5 4 12 2 16 -4 8 -13 -25 -26 -34 -13
-3 5 -14 12 -23 16 -10 3 -18 13 -18 22 0 21 9 19 31 -6z m1570 -1 c11 -21 11
-22 -4 -9 -10 7 -17 17 -17 22 0 15 9 10 21 -13z m34 12 c3 -5 1 -10 -4 -10
-6 0 -11 5 -11 10 0 6 2 10 4 10 3 0 8 -4 11 -10z m-2025 -25 c0 -8 -4 -15
-10 -15 -5 0 -10 7 -10 15 0 8 5 15 10 15 6 0 10 -7 10 -15z m86 -12 c-10 -10
-19 5 -10 18 6 11 8 11 12 0 2 -7 1 -15 -2 -18z m843 13 c6 -8 10 -19 9 -26
-2 -7 3 -15 11 -18 9 -3 11 0 6 8 -10 17 27 -4 45 -24 11 -14 9 -16 -8 -16
-12 0 -23 -4 -27 -10 -9 -15 -35 0 -35 22 0 14 -6 18 -21 16 -12 -2 -26 5 -32
14 -14 22 -2 35 18 18 18 -15 20 1 3 18 -9 9 -8 12 4 12 8 0 21 -6 27 -14z
m-355 -19 c12 -13 20 -29 19 -34 -2 -6 3 -27 11 -47 l15 -36 -30 22 c-28 21
-33 30 -30 55 1 6 -3 14 -9 18 -11 7 -14 45 -4 45 4 0 16 -11 28 -23z m-661
-7 c-5 -20 -33 -29 -33 -10 0 7 25 27 37 30 0 0 -1 -9 -4 -20z m242 10 c3 -5
-3 -10 -14 -10 -12 0 -21 5 -21 10 0 6 6 10 14 10 8 0 18 -4 21 -10z m155 6
c0 -3 -4 -8 -10 -11 -5 -3 -10 -1 -10 4 0 6 5 11 10 11 6 0 10 -2 10 -4z
m1563 -22 c-3 -8 -9 -12 -13 -9 -5 3 -12 0 -16 -6 -5 -8 -9 -8 -14 1 -5 7 -3
18 3 25 15 16 47 7 40 -11z m-1913 -8 c0 -8 3 -23 6 -33 5 -16 4 -16 -10 1
-18 22 -21 46 -6 46 6 0 10 -6 10 -14z m460 5 c0 -6 -4 -13 -10 -16 -5 -3 -10
1 -10 9 0 9 5 16 10 16 6 0 10 -4 10 -9z m-42 -21 c7 -11 9 -20 4 -20 -4 0
-15 9 -25 20 -11 14 -13 20 -4 20 7 0 18 -9 25 -20z m-250 -18 c2 -7 -3 -12
-12 -12 -9 0 -16 7 -16 16 0 17 22 14 28 -4z m92 3 c0 -8 -6 -15 -14 -15 -17
0 -28 14 -19 24 12 12 33 6 33 -9z m254 7 c2 -4 0 -14 -5 -22 -8 -13 -10 -13
-19 0 -5 8 -10 18 -10 23 0 10 28 9 34 -1z m1476 -11 c0 -11 3 -26 6 -35 4
-10 1 -16 -9 -16 -21 0 -33 20 -18 29 6 4 9 15 5 24 -3 10 -1 17 5 17 6 0 11
-9 11 -19z m159 -24 c0 -27 -2 -29 -9 -12 -12 28 -12 57 0 50 6 -3 10 -21 9
-38z m344 28 c4 -8 2 -17 -3 -20 -6 -4 -10 3 -10 14 0 25 6 27 13 6z m-2438
-5 c-3 -5 -10 -10 -16 -10 -5 0 -9 5 -9 10 0 6 7 10 16 10 8 0 12 -4 9 -10z
m895 -11 c0 -5 -4 -9 -10 -9 -5 0 -10 7 -10 16 0 8 5 12 10 9 6 -3 10 -10 10
-16z m-980 1 c0 -5 -4 -10 -9 -10 -6 0 -13 5 -16 10 -3 6 1 10 9 10 9 0 16 -4
16 -10z m150 0 c0 -5 -4 -10 -10 -10 -5 0 -10 5 -10 10 0 6 5 10 10 10 6 0 10
-4 10 -10z m340 -6 c0 -8 -4 -12 -10 -9 -5 3 -10 10 -10 16 0 5 5 9 10 9 6 0
10 -7 10 -16z m96 -20 c9 4 18 -4 25 -21 11 -31 5 -41 -13 -21 -42 45 -49 58
-41 70 6 9 9 7 11 -10 2 -16 8 -22 18 -18z m-636 11 c0 -8 -4 -15 -10 -15 -5
0 -10 7 -10 15 0 8 5 15 10 15 6 0 10 -7 10 -15z m780 -25 c0 -21 -15 -27 -25
-10 -7 12 2 30 16 30 5 0 9 -9 9 -20z m-675 0 c3 -5 1 -10 -4 -10 -6 0 -11 5
-11 10 0 6 2 10 4 10 3 0 8 -4 11 -10z m65 0 c0 -5 -4 -10 -10 -10 -5 0 -10 5
-10 10 0 6 5 10 10 10 6 0 10 -4 10 -10z m2030 -6 c0 -2 -7 -4 -15 -4 -8 0
-15 4 -15 10 0 5 7 7 15 4 8 -4 15 -8 15 -10z m-2290 2 c0 -11 -19 -15 -25 -6
-3 5 1 10 9 10 9 0 16 -2 16 -4z m110 0 c0 -11 -19 -15 -25 -6 -3 5 1 10 9 10
9 0 16 -2 16 -4z m40 -15 c0 -6 -5 -13 -10 -16 -6 -4 -7 -12 -4 -18 5 -9 4 -9
-5 -1 -6 6 -9 18 -5 27 7 18 24 23 24 8z m540 -6 c-7 -8 -14 -15 -15 -15 -2 0
-5 7 -9 15 -4 10 1 15 16 15 17 0 18 -2 8 -15z m110 -6 c0 -18 -2 -19 -15 -9
-8 7 -15 16 -15 21 0 5 7 9 15 9 9 0 15 -9 15 -21z m1530 3 c0 -10 3 -22 7
-26 12 -12 31 -121 22 -124 -5 -2 -4 -13 2 -24 10 -18 9 -18 -10 -8 -12 6 -21
20 -21 30 0 11 -4 20 -10 20 -5 0 -10 7 -10 15 0 8 -5 15 -11 15 -5 0 -7 5 -4
10 10 17 -5 50 -23 51 -10 0 -12 3 -5 5 7 3 9 12 6 20 -3 8 -1 14 3 14 10 0
34 -48 34 -67 0 -7 7 -13 16 -13 13 0 14 3 5 13 -15 19 -25 87 -12 87 6 0 11
-8 11 -18z m-2270 -2 c0 -5 -2 -10 -4 -10 -3 0 -8 5 -11 10 -3 6 -1 10 4 10 6
0 11 -4 11 -10z m-52 -19 c3 -8 -1 -12 -9 -9 -7 2 -15 10 -17 17 -3 8 1 12 9
9 7 -2 15 -10 17 -17z m2701 -81 c-1 -21 -27 60 -28 85 0 11 7 0 15 -25 7 -25
13 -52 13 -60z m-2329 86 c0 -2 -17 -15 -38 -29 -42 -27 -72 -79 -72 -121 0
-14 -4 -26 -10 -26 -5 0 -10 -9 -10 -20 0 -12 5 -17 13 -14 8 3 18 -12 28 -43
14 -44 14 -49 -1 -65 -22 -24 -33 -23 -25 2 3 11 3 25 -2 32 -4 7 -8 18 -8 23
-1 6 -6 29 -13 53 -11 36 -11 45 3 58 8 8 15 22 15 30 0 32 40 94 61 94 11 0
18 4 14 9 -3 5 3 12 12 14 26 7 33 7 33 3z m346 -31 c-9 -9 -16 -21 -16 -26 0
-5 -4 -9 -10 -9 -5 0 -7 7 -4 15 4 8 1 22 -6 30 -11 13 -10 14 3 10 8 -4 18
-1 22 5 5 8 11 8 17 2 7 -7 6 -16 -6 -27z m-651 15 c3 -5 16 -10 28 -10 16 0
18 -3 9 -12 -10 -10 -17 -10 -32 0 -11 6 -27 12 -35 12 -8 0 -15 5 -15 10 0 6
9 10 19 10 11 0 23 -4 26 -10z m145 6 c0 -3 -4 -8 -10 -11 -5 -3 -10 -1 -10 4
0 6 5 11 10 11 6 0 10 -2 10 -4z m570 -22 c0 -16 -16 -19 -25 -4 -8 13 4 32
16 25 5 -4 9 -13 9 -21z m37 -6 c-3 -8 -6 -5 -6 6 -1 11 2 17 5 13 3 -3 4 -12
1 -19z m-867 2 c0 -5 -4 -10 -9 -10 -6 0 -13 5 -16 10 -3 6 1 10 9 10 9 0 16
-4 16 -10z m220 -5 c0 -8 -4 -15 -10 -15 -5 0 -10 7 -10 15 0 8 5 15 10 15 6
0 10 -7 10 -15z m2065 4 c11 -17 -1 -21 -15 -4 -8 9 -8 15 -2 15 6 0 14 -5 17
-11z m-2152 -21 c4 1 7 -6 7 -16 0 -10 7 -27 15 -38 15 -18 15 -18 9 9 -4 17
-2 27 5 27 12 0 15 -29 5 -54 -3 -9 -17 -16 -30 -16 -25 0 -43 -25 -29 -38 4
-4 10 -1 12 6 3 6 11 12 19 12 11 0 11 -5 2 -25 -6 -14 -8 -28 -3 -33 4 -4 10
-1 12 6 6 15 36 16 31 0 -2 -6 -11 -12 -19 -14 -7 -1 -22 -5 -31 -9 -13 -5
-18 -2 -18 10 0 9 -7 23 -15 31 -13 14 -15 14 -15 -1 0 -13 -9 -9 -38 16 -21
19 -37 37 -35 42 2 4 11 0 19 -8 9 -8 26 -15 40 -15 19 0 24 5 24 24 0 32 16
42 29 19 9 -16 10 -16 11 -2 0 22 -32 49 -37 32 -9 -25 -21 -12 -21 22 0 32 1
34 22 23 11 -7 24 -11 29 -10z m815 10 c-3 -7 -10 -13 -17 -13 -6 0 -16 -6
-20 -14 -6 -10 -10 -10 -16 -1 -4 6 -5 12 -4 13 2 1 13 7 24 14 26 16 38 16
33 1z m1492 -9 c0 -5 -4 -9 -10 -9 -5 0 -10 7 -10 16 0 8 5 12 10 9 6 -3 10
-10 10 -16z m-2190 -5 c0 -8 -5 -12 -10 -9 -6 4 -8 11 -5 16 9 14 15 11 15 -7z
m-220 -19 c-6 -7 -7 -21 -4 -31 6 -17 5 -17 -9 1 -11 15 -12 22 -4 27 7 4 8 8
4 8 -5 0 -5 5 -2 10 4 6 11 8 16 4 6 -4 6 -10 -1 -19z m438 7 c8 -7 11 -20 8
-28 -3 -9 -3 -21 1 -27 4 -6 8 -37 10 -69 2 -52 1 -58 -17 -58 -20 0 -24 12
-21 55 1 11 -5 29 -13 40 -14 19 -15 18 -9 -16 4 -31 2 -38 -15 -43 -12 -4
-19 -13 -16 -21 3 -7 1 -16 -5 -19 -11 -7 -17 9 -26 69 -4 22 -9 48 -12 57 -6
25 41 42 79 29 37 -13 28 3 -12 19 -16 7 -28 15 -26 19 7 11 61 7 74 -7z m512
1 c0 -12 3 -14 11 -6 6 6 19 8 30 6 20 -6 26 -28 9 -38 -5 -3 -10 -1 -10 4 0
6 -4 11 -10 11 -5 0 -10 -12 -10 -26 0 -16 -5 -24 -12 -21 -7 2 -13 17 -13 32
0 16 -6 30 -13 32 -6 3 -10 9 -6 14 9 15 24 10 24 -8z m1290 -17 c0 -3 -7 -3
-15 0 -8 4 -15 13 -15 21 0 12 2 12 15 -1 8 -8 15 -17 15 -20z m-1420 9 c0 -8
-4 -15 -10 -15 -5 0 -10 7 -10 15 0 8 5 15 10 15 6 0 10 -7 10 -15z m-620 -4
c0 -12 -20 -25 -27 -18 -7 7 6 27 18 27 5 0 9 -4 9 -9z m720 -16 c0 -8 -4 -15
-10 -15 -5 0 -10 7 -10 15 0 8 5 15 10 15 6 0 10 -7 10 -15z m1300 -4 c24 -14
28 -20 16 -24 -9 -4 -16 -2 -16 3 0 6 -8 10 -17 9 -11 0 -13 -3 -5 -6 19 -7
14 -25 -5 -19 -10 3 -24 2 -32 -3 -11 -7 -9 -13 8 -30 25 -25 35 -27 27 -6 -9
24 10 17 28 -10 16 -25 16 -25 -13 -25 -16 0 -33 -5 -36 -10 -3 -6 -18 -7 -32
-4 -18 5 -24 3 -19 -5 4 -6 1 -11 -8 -11 -9 0 -16 -4 -16 -10 0 -11 -33 -14
-43 -4 -6 7 60 106 75 112 4 2 4 11 1 19 -5 12 -2 15 8 11 9 -4 20 2 27 13 15
23 14 23 52 0z m-1510 -1 c0 -5 -5 -10 -11 -10 -5 0 -7 5 -4 10 3 6 8 10 11
10 2 0 4 -4 4 -10z m75 1 c3 -5 1 -12 -5 -16 -5 -3 -10 -15 -10 -26 0 -27 -13
-24 -27 7 -10 21 -10 25 2 20 9 -3 12 0 8 10 -6 16 22 20 32 5z m1501 -25 c4
-23 2 -25 -9 -14 -8 7 -12 21 -9 31 6 22 12 17 18 -17z m-2072 9 c-4 -8 -8
-15 -10 -15 -2 0 -4 7 -4 15 0 8 4 15 10 15 5 0 7 -7 4 -15z m2520 0 c3 -8 1
-15 -4 -15 -6 0 -10 7 -10 15 0 8 2 15 4 15 2 0 6 -7 10 -15z m-2803 -12 c13
-16 12 -17 -3 -4 -10 7 -18 15 -18 17 0 8 8 3 21 -13z m39 13 c0 -11 -19 -15
-25 -6 -3 5 1 10 9 10 9 0 16 -2 16 -4z m932 -16 c7 -11 18 -20 24 -20 7 0 10
-8 7 -20 -6 -23 -28 -22 -28 1 0 8 -6 23 -12 34 -12 19 -14 19 -24 2 -5 -9
-14 -15 -20 -12 -15 10 -11 23 9 28 30 8 32 7 44 -13z m-857 0 c3 -5 2 -10 -4
-10 -5 0 -13 5 -16 10 -3 6 -2 10 4 10 5 0 13 -4 16 -10z m970 0 c3 -6 -1 -13
-10 -16 -19 -8 -30 0 -20 15 8 14 22 14 30 1z m-820 -36 c10 -25 12 -41 5 -49
-5 -6 -7 -15 -3 -18 3 -4 -5 -7 -18 -7 -21 1 -22 2 -6 11 25 14 21 38 -8 45
-25 6 -28 18 -10 41 16 20 24 15 40 -23z m618 16 c3 -11 1 -20 -4 -20 -5 0 -9
2 -9 4 0 2 -3 11 -6 20 -3 9 -2 16 4 16 5 0 12 -9 15 -20z m290 -6 c-4 -12 -8
-13 -14 -3 -9 15 -2 32 11 24 5 -3 6 -13 3 -21z m1159 -9 c6 -14 8 -28 4 -32
-9 -9 -27 18 -20 29 3 4 0 8 -5 8 -6 0 -11 5 -11 10 0 19 21 10 32 -15z
m-2352 5 c0 -5 -4 -10 -10 -10 -5 0 -10 5 -10 10 0 6 5 10 10 10 6 0 10 -4 10
-10z m595 0 c-3 -5 -11 -10 -16 -10 -6 0 -7 5 -4 10 3 6 11 10 16 10 6 0 7 -4
4 -10z m484 1 c8 -5 11 -16 7 -26 -5 -14 -9 -15 -21 -5 -13 10 -15 8 -15 -13
0 -14 -5 -29 -11 -33 -9 -5 -10 4 -4 32 10 57 16 63 44 45z m64 -8 c-7 -2 -13
-20 -13 -39 0 -20 4 -33 9 -30 5 4 7 -3 4 -14 -7 -25 -19 -26 -27 -3 -6 14 -9
15 -15 4 -5 -8 -8 -1 -7 18 1 17 7 33 14 36 6 2 12 11 12 20 0 8 8 15 18 14
10 0 12 -3 5 -6z m-405 -28 c-3 -3 -9 2 -12 12 -6 14 -5 15 5 6 7 -7 10 -15 7
-18z m138 12 c3 -3 2 -13 -3 -21 -8 -14 -12 -13 -32 8 l-23 25 26 -3 c14 -1
29 -5 32 -9z m104 -3 c0 -8 -4 -12 -10 -9 -5 3 -10 10 -10 16 0 5 5 9 10 9 6
0 10 -7 10 -16z m-940 -10 c0 -8 -4 -12 -10 -9 -5 3 -10 10 -10 16 0 5 5 9 10
9 6 0 10 -7 10 -16z m1130 -10 c0 -16 -16 -19 -25 -4 -8 13 4 32 16 25 5 -4 9
-13 9 -21z m-230 6 c0 -5 -7 -10 -15 -10 -8 0 -15 5 -15 10 0 6 7 10 15 10 8
0 15 -4 15 -10z m-340 -10 c0 -5 -4 -10 -10 -10 -5 0 -10 5 -10 10 0 6 5 10
10 10 6 0 10 -4 10 -10z m220 -10 c0 -5 -4 -10 -10 -10 -5 0 -10 5 -10 10 0 6
5 10 10 10 6 0 10 -4 10 -10z m190 0 c0 -5 -7 -10 -15 -10 -8 0 -15 5 -15 10
0 6 7 10 15 10 8 0 15 -4 15 -10z m66 -17 c-10 -10 -19 5 -10 18 6 11 8 11 12
0 2 -7 1 -15 -2 -18z m1054 18 c0 -6 -4 -13 -10 -16 -5 -3 -10 1 -10 9 0 9 5
16 10 16 6 0 10 -4 10 -9z m280 -1 c0 -5 -4 -10 -10 -10 -5 0 -10 5 -10 10 0
6 5 10 10 10 6 0 10 -4 10 -10z m-2450 -25 c0 -14 -4 -25 -9 -25 -5 0 -8 11
-7 25 1 33 16 33 16 0z m190 10 c-7 -8 -14 -15 -15 -15 -2 0 -5 7 -9 15 -4 10
1 15 16 15 17 0 18 -2 8 -15z m2338 -9 c6 -13 14 -41 18 -63 6 -33 5 -36 -8
-25 -9 7 -18 27 -21 45 -3 17 -8 40 -12 50 -11 26 10 20 23 -7z m-1570 -4 c2
-7 -2 -10 -12 -6 -9 3 -16 11 -16 16 0 13 23 5 28 -10z m-78 -2 c0 -5 -5 -10
-11 -10 -5 0 -7 5 -4 10 3 6 8 10 11 10 2 0 4 -4 4 -10z m1620 0 c0 -5 -4 -10
-10 -10 -5 0 -10 5 -10 10 0 6 5 10 10 10 6 0 10 -4 10 -10z m-1569 -30 c15 0
10 -28 -7 -38 -11 -6 -13 -11 -5 -16 16 -10 14 -36 -3 -36 -10 0 -13 9 -11 28
2 15 4 43 5 62 1 19 4 27 7 18 2 -10 9 -18 14 -18z m1212 15 c-3 -9 -8 -14
-10 -11 -3 3 -2 9 2 15 9 16 15 13 8 -4z m-1923 -11 c0 -2 -7 -4 -15 -4 -8 0
-15 4 -15 10 0 5 7 7 15 4 8 -4 15 -8 15 -10z m50 -10 c0 -8 -4 -14 -10 -14
-5 0 -10 9 -10 21 0 11 5 17 10 14 6 -3 10 -13 10 -21z m282 4 c-7 -7 -12 -8
-12 -2 0 14 12 26 19 19 2 -3 -1 -11 -7 -17z m210 0 c-7 -7 -12 -20 -12 -29 0
-12 -6 -16 -19 -12 -18 4 -17 7 7 33 15 16 29 27 31 24 3 -2 -1 -10 -7 -16z
m78 12 c0 -5 -5 -10 -11 -10 -5 0 -7 5 -4 10 3 6 8 10 11 10 2 0 4 -4 4 -10z
m200 2 c0 -13 -12 -22 -22 -16 -10 6 -1 24 13 24 5 0 9 -4 9 -8z m70 0 c0 -5
9 -19 20 -32 11 -12 17 -27 13 -33 -3 -5 -10 -3 -15 7 -13 23 -31 20 -23 -4 7
-23 -5 -26 -24 -7 -10 10 -11 9 -6 -4 3 -9 -1 -22 -10 -29 -12 -10 -15 -10
-15 5 0 9 6 29 14 43 8 15 17 35 20 45 5 17 26 24 26 9z m-806 -17 c-4 -8 -8
-15 -10 -15 -2 0 -4 7 -4 15 0 8 4 15 10 15 5 0 7 -7 4 -15z m261 -39 l40 -15
-35 0 c-38 -1 -96 41 -84 61 4 7 13 3 23 -10 9 -12 34 -28 56 -36z m2027 29
c-2 -14 -8 -25 -13 -25 -10 0 -12 34 -2 43 13 14 20 6 15 -18z m-82 -6 c0 -11
-4 -17 -10 -14 -5 3 -10 13 -10 21 0 8 5 14 10 14 6 0 10 -9 10 -21z m-1486
-15 c6 -15 -3 -18 -28 -8 -8 3 -12 12 -10 19 7 16 30 9 38 -11z m164 15 c-2
-6 -8 -10 -13 -10 -5 0 -11 4 -13 10 -2 6 4 11 13 11 9 0 15 -5 13 -11z m-844
-24 c3 -8 2 -23 -1 -32 -5 -12 -2 -15 10 -10 9 3 17 2 17 -3 0 -11 61 6 70 19
9 15 34 -5 27 -22 -3 -8 -25 -17 -52 -20 -58 -8 -87 9 -90 52 -3 32 9 42 19
16z m511 -23 c-8 -8 -25 10 -19 20 4 6 9 5 15 -3 4 -7 6 -15 4 -17z m-634 -13
c-5 -13 -10 -19 -10 -12 -1 15 10 45 15 40 3 -2 0 -15 -5 -28z m-56 1 c3 -5
-1 -10 -10 -10 -9 0 -13 5 -10 10 3 6 8 10 10 10 2 0 7 -4 10 -10z m119 -6 c3
-8 2 -12 -4 -9 -6 3 -10 10 -10 16 0 14 7 11 14 -7z m436 -19 c0 -5 -5 -3 -10
5 -5 8 -10 20 -10 25 0 6 5 3 10 -5 5 -8 10 -19 10 -25z m275 21 c15 -15 10
-26 -12 -26 -7 0 -13 9 -13 20 0 24 6 25 25 6z m1942 -93 c-2 -21 -4 -4 -4 37
0 41 2 58 4 38 2 -21 2 -55 0 -75z m-2392 84 c26 -8 41 -19 43 -31 3 -16 -1
-18 -29 -12 -18 3 -41 15 -51 26 -31 33 -25 36 37 17z m2059 -71 c30 -58 26
-71 -8 -31 -17 19 -25 23 -28 14 -3 -8 -10 4 -16 26 -8 26 -8 41 -2 43 6 2 7
9 4 15 -4 7 0 5 8 -3 9 -8 27 -37 42 -64z m-1434 22 c0 -17 -3 -18 -15 -8 -8
7 -15 21 -15 32 0 17 3 18 15 8 8 -7 15 -21 15 -32z m-910 22 c0 -5 -4 -10
-10 -10 -5 0 -10 5 -10 10 0 6 5 10 10 10 6 0 10 -4 10 -10z m575 0 c3 -5 1
-10 -4 -10 -6 0 -11 5 -11 10 0 6 2 10 4 10 3 0 8 -4 11 -10z m250 1 c3 -5 1
-12 -5 -16 -5 -3 -10 1 -10 9 0 18 6 21 15 7z m36 -44 c-6 -6 -11 -19 -11 -29
0 -10 -7 -18 -17 -18 -13 0 -14 -3 -5 -12 16 -16 15 -35 0 -41 -17 -6 -16 47
1 67 8 9 11 23 7 31 -3 9 0 15 9 15 8 0 16 8 16 18 1 15 2 15 6 -2 3 -10 0
-23 -6 -29z m-136 23 c-3 -5 -11 -10 -16 -10 -6 0 -7 5 -4 10 3 6 11 10 16 10
6 0 7 -4 4 -10z m1539 -6 c4 -10 1 -14 -6 -12 -15 5 -23 28 -10 28 5 0 13 -7
16 -16z m-1465 -8 c8 -10 9 -16 1 -21 -13 -8 -30 3 -30 21 0 18 14 18 29 0z
m1431 10 c0 -11 -19 -15 -25 -6 -3 5 1 10 9 10 9 0 16 -2 16 -4z m-1450 -48
c0 -5 -7 -8 -15 -8 -8 0 -15 4 -15 9 0 5 -3 17 -7 26 -5 16 -4 15 15 -1 12
-10 22 -22 22 -26z m-60 11 c0 -5 -7 -9 -15 -9 -15 0 -20 12 -9 23 8 8 24 -1
24 -14z m250 -42 c0 -14 -20 -28 -60 -42 -34 -12 -39 -17 -27 -35 13 -22 2
-39 -14 -23 -6 6 -19 9 -28 5 -14 -5 -14 -3 2 12 16 16 21 30 18 49 0 4 3 7 8
7 5 0 16 16 25 35 10 20 21 33 27 30 5 -4 9 2 9 12 0 15 4 14 20 -7 11 -14 20
-33 20 -43z m1680 53 c0 -5 -4 -10 -10 -10 -5 0 -10 5 -10 10 0 6 5 10 10 10
6 0 10 -4 10 -10z m-460 -10 c0 -5 -4 -10 -10 -10 -5 0 -10 5 -10 10 0 6 5 10
10 10 6 0 10 -4 10 -10z m-1310 -16 c0 -8 -4 -12 -10 -9 -5 3 -10 10 -10 16 0
5 5 9 10 9 6 0 10 -7 10 -16z m-565 -4 c18 -8 18 -9 -5 -9 -14 0 -32 4 -40 9
-12 8 -12 10 5 9 11 0 29 -4 40 -9z m253 -25 c-3 -3 -9 2 -12 12 -6 14 -5 15
5 6 7 -7 10 -15 7 -18z m68 -16 c8 -17 14 -38 12 -47 -3 -13 -8 -10 -20 13 -8
17 -19 41 -23 54 -10 32 10 19 31 -20z m124 15 c0 -8 -4 -12 -10 -9 -5 3 -10
10 -10 16 0 5 5 9 10 9 6 0 10 -7 10 -16z m-400 -33 c0 -9 5 -23 10 -31 7 -12
11 -10 19 10 l10 25 0 -27 c1 -16 6 -28 11 -28 7 0 7 -6 0 -20 -6 -10 -17 -17
-24 -14 -9 3 -17 -3 -21 -15 -3 -12 -11 -18 -17 -15 -6 4 -8 -1 -3 -15 4 -14
2 -21 -6 -21 -7 0 -9 3 -6 7 4 3 2 12 -4 20 -8 9 -8 13 -1 13 6 0 10 24 9 60
-1 59 -2 60 -29 60 -15 0 -28 3 -28 8 0 4 18 6 40 4 29 -3 40 -9 40 -21z m375
9 c3 -5 1 -10 -4 -10 -6 0 -11 5 -11 10 0 6 2 10 4 10 3 0 8 -4 11 -10z m1952
-22 c-3 -8 -6 -5 -6 6 -1 11 2 17 5 13 3 -3 4 -12 1 -19z m-2765 -10 c-7 -7
-12 -8 -12 -2 0 14 12 26 19 19 2 -3 -1 -11 -7 -17z m668 -30 c0 -10 -4 -18
-10 -18 -5 0 -10 15 -10 33 0 24 3 28 10 17 5 -8 10 -23 10 -32z m204 36 c9
-3 16 -13 16 -21 0 -20 -34 -12 -38 10 -4 19 -1 20 22 11z m-854 -54 c-11 -11
-23 -20 -27 -20 -3 0 2 9 12 20 10 11 22 20 27 20 4 0 -1 -9 -12 -20z m516 1
c0 -11 -5 -17 -13 -14 -14 6 -17 16 -6 26 11 12 19 7 19 -12z m70 -47 c-10
-40 -28 -28 -20 14 4 20 9 42 13 47 9 14 14 -32 7 -61z m-388 32 c7 -4 10 -12
7 -17 -3 -5 1 -6 9 -3 22 9 33 -26 13 -40 -8 -7 -15 -21 -14 -32 2 -16 -5 -19
-45 -19 -25 0 -49 -3 -52 -6 -3 -3 14 -15 38 -27 54 -27 93 -21 135 20 23 22
31 40 32 67 0 29 2 32 9 16 5 -11 9 -14 9 -7 1 7 6 10 12 7 6 -4 8 -13 5 -21
-3 -8 0 -11 10 -7 7 3 14 0 14 -6 0 -6 -3 -11 -7 -11 -5 0 -17 -13 -28 -28
-18 -25 -16 -24 25 8 25 19 60 51 77 70 27 29 36 33 50 24 11 -7 17 -22 16
-35 -8 -73 -11 -83 -31 -90 -12 -5 -31 -18 -42 -29 -12 -12 -28 -19 -36 -16
-8 3 -14 1 -14 -3 0 -5 5 -11 11 -13 9 -3 9 -10 0 -27 -7 -12 -18 -20 -24 -18
-7 2 -30 -4 -52 -14 -22 -10 -51 -19 -65 -19 -14 0 -33 -6 -42 -14 -10 -7 -31
-11 -48 -8 -39 6 -37 31 5 52 61 31 120 72 95 65 -14 -4 -37 -15 -52 -26 -15
-10 -33 -19 -40 -19 -14 0 -78 59 -78 72 0 17 -51 88 -63 88 -21 0 -58 -98
-72 -192 -8 -48 -16 -92 -20 -98 -11 -18 -32 6 -38 43 -7 40 62 259 80 252 15
-5 30 13 38 47 7 26 8 26 84 24 43 -2 83 -6 89 -10z m-198 -25 c0 -6 -4 -13
-10 -16 -5 -3 -10 1 -10 9 0 9 5 16 10 16 6 0 10 -4 10 -9z m270 -31 c-6 -11
-16 -20 -21 -20 -6 0 -8 -7 -5 -16 3 -8 2 -12 -4 -9 -15 9 -12 23 8 44 23 26
35 26 22 1z m-331 -66 c-12 -24 -24 -44 -27 -44 -6 0 5 41 25 86 12 29 18 34
21 20 2 -10 -6 -38 -19 -62z m871 40 c0 -2 -9 -4 -21 -4 -11 0 -18 4 -14 10 5
8 35 3 35 -6z m-206 -22 c7 -12 -28 -108 -49 -128 -10 -10 -26 -37 -36 -60
-10 -22 -28 -53 -39 -67 -12 -15 -17 -27 -12 -27 12 0 46 49 91 131 29 55 92
141 98 136 8 -8 -30 -92 -66 -147 -20 -30 -42 -66 -49 -80 -7 -14 -22 -36 -34
-50 l-20 -25 -24 28 c-13 15 -22 36 -20 45 5 27 24 70 34 76 4 3 15 24 22 48
24 76 86 148 104 120z m316 -57 c0 -8 -7 -15 -15 -15 -8 0 -15 7 -15 15 0 8 7
15 15 15 8 0 15 -7 15 -15z m-166 -56 c4 6 4 16 1 21 -3 6 -1 10 4 10 6 0 11
-11 11 -25 0 -14 -4 -25 -9 -25 -4 0 -7 -10 -7 -22 3 -27 -20 -78 -34 -78 -6
0 -10 -9 -10 -20 0 -13 -10 -22 -32 -29 -26 -7 -28 -9 -10 -10 12 -1 30 7 40
17 10 9 28 23 40 30 19 11 22 10 22 -6 0 -30 -65 -80 -115 -87 -64 -10 -68 -6
-40 45 13 25 29 56 35 70 6 14 20 44 32 68 16 32 19 45 10 51 -9 5 -7 13 5 31
l17 24 17 -38 c9 -22 19 -33 23 -27z m66 6 c0 -13 -5 -27 -12 -31 -7 -5 -9 -2
-5 8 3 9 1 20 -5 26 -12 12 -1 35 13 27 5 -4 9 -17 9 -30z m-725 -107 c5 -22
3 -29 -10 -34 -10 -4 -21 -1 -26 7 -13 20 -11 76 4 99 11 19 12 19 18 -12 3
-18 10 -45 14 -60z m741 37 c3 -17 -12 -20 -21 -5 -7 12 4 34 13 25 3 -3 7
-12 8 -20z m-432 -39 c-3 -9 -10 -13 -16 -10 -5 3 -4 12 3 20 15 18 22 13 13
-10z m-57 -11 c-4 -8 -14 -15 -23 -15 -16 0 -16 2 1 20 20 22 31 20 22 -5z
m-120 -1 c-3 -3 -12 -4 -19 -1 -8 3 -5 6 6 6 11 1 17 -2 13 -5z m27 -29 c-4
-8 -21 -22 -38 -30 -29 -14 -36 -14 -71 0 l-40 15 45 -4 c35 -4 53 0 75 14 36
24 36 24 29 5z m736 -22 c0 -25 -1 -26 -16 -11 -9 9 -13 21 -10 27 13 20 26
11 26 -16z m-59 -16 c-13 -13 -26 -3 -16 12 3 6 11 8 17 5 6 -4 6 -10 -1 -17z
m-1008 -2 c-3 -9 -8 -14 -10 -11 -3 3 -2 9 2 15 9 16 15 13 8 -4z m146 1 c7
-9 8 -17 2 -20 -14 -9 -63 12 -56 24 9 15 41 12 54 -4z m1058 -3 c4 -9 1 -19
-5 -21 -7 -2 -10 -8 -6 -13 3 -5 1 -9 -4 -9 -11 0 -23 40 -16 52 9 13 24 9 31
-9z m-1003 -9 c24 -9 19 -19 -9 -22 -24 -2 -32 8 -18 21 8 8 8 8 27 1z m959
-30 c-2 -6 -15 -14 -28 -17 -18 -3 -26 1 -31 15 -7 23 4 38 15 20 6 -10 11 -9
21 3 10 12 15 13 21 4 4 -7 5 -18 2 -25z m-1046 -10 c-7 -7 -37 7 -37 17 0 6
9 5 21 -1 11 -7 19 -14 16 -16z m138 16 c3 -5 -1 -10 -10 -10 -9 0 -13 5 -10
10 3 6 8 10 10 10 2 0 7 -4 10 -10z m164 -5 c13 -7 14 -54 2 -74 -13 -20 -74
3 -91 34 -20 38 -7 55 39 51 22 -2 44 -7 50 -11z m61 -10 c0 -7 -7 -19 -16
-26 -15 -12 -16 -11 -10 9 5 14 3 22 -4 22 -6 0 -9 4 -5 10 8 12 35 1 35 -15z
m354 7 c5 -8 -38 -33 -77 -46 -22 -7 -67 3 -67 14 0 4 20 11 45 14 24 4 47 11
50 17 7 11 42 12 49 1z m223 -17 c9 -24 -1 -27 -15 -5 -8 13 -8 20 -2 20 6 0
13 -7 17 -15z m678 -7 c-8 -25 -22 -44 -29 -37 -10 10 8 59 21 59 10 0 12 -6
8 -22z m-715 -7 c0 -6 -4 -13 -10 -16 -5 -3 -10 1 -10 9 0 9 5 16 10 16 6 0
10 -4 10 -9z m-1050 -19 c0 -4 -9 -18 -19 -32 l-19 -24 11 36 c6 20 15 34 19
32 4 -3 8 -8 8 -12z m624 3 c-6 -16 -24 -21 -24 -7 0 11 11 22 21 22 5 0 6 -7
3 -15z m-341 -2 c-7 -2 -21 -2 -30 0 -10 3 -4 5 12 5 17 0 24 -2 18 -5z m-136
-18 c8 -9 12 -23 9 -32 -6 -14 -8 -14 -21 3 -15 19 -20 44 -9 44 3 0 12 -7 21
-15z m621 -32 c-5 -24 -22 -16 -36 17 l-12 31 25 -17 c14 -9 25 -23 23 -31z
m-428 -8 c0 -6 -11 -18 -25 -25 -14 -8 -24 -19 -22 -24 19 -50 18 -52 -17 -48
-24 3 -36 10 -40 25 -7 27 0 37 28 37 22 0 46 17 46 32 0 4 -7 5 -15 1 -13 -5
-14 -2 -4 21 12 25 13 25 31 10 10 -10 18 -22 18 -29z m358 14 c14 -10 20 -22
16 -33 -3 -9 -8 -16 -10 -16 -6 0 -74 68 -74 74 0 8 45 -9 68 -25z m1033 -32
c-8 -8 -11 -4 -11 14 0 33 14 47 18 19 2 -12 -1 -27 -7 -33z m-1621 2 c0 -6
-4 -7 -10 -4 -5 3 -10 11 -10 16 0 6 5 7 10 4 6 -3 10 -11 10 -16z m494 0 c15
12 26 5 26 -17 0 -9 -3 -12 -7 -9 -3 4 -11 3 -17 -2 -18 -14 -66 -22 -66 -11
0 5 10 11 23 11 16 1 18 2 5 6 -10 2 -18 11 -18 19 0 12 4 12 21 4 14 -8 24
-8 33 -1z m-113 -30 c31 0 32 -1 11 -10 -28 -11 -97 14 -87 31 5 8 13 6 24 -4
10 -9 33 -16 52 -17z m-536 -10 c-10 -15 -25 -10 -19 6 4 8 10 12 15 9 5 -3 7
-10 4 -15z m1775 -2 c0 -7 -7 -25 -15 -41 -8 -15 -15 -33 -15 -38 0 -22 -33
-78 -46 -78 -19 0 -17 19 6 58 11 18 20 36 20 41 0 22 32 81 40 76 6 -3 10
-12 10 -18z m-1610 -13 c0 -8 -4 -12 -10 -9 -5 3 -10 10 -10 16 0 5 5 9 10 9
6 0 10 -7 10 -16z m105 -14 c3 -5 -3 -10 -14 -10 -12 0 -21 5 -21 10 0 6 6 10
14 10 8 0 18 -4 21 -10z m581 -56 c17 -14 17 -15 1 -10 -10 3 -23 6 -28 6 -5
0 -9 5 -9 10 0 14 13 12 36 -6z m114 -50 c0 -9 11 -14 31 -14 25 0 29 -3 20
-13 -6 -8 -23 -12 -41 -9 -26 4 -30 9 -30 34 0 17 4 27 10 23 6 -3 10 -13 10
-21z m-189 -1 c12 -15 12 -16 -3 -10 -10 3 -20 2 -23 -3 -10 -15 -91 -12 -104
4 -10 12 -3 14 49 10 34 -2 60 1 60 6 0 14 6 12 21 -7z m54 8 c10 -17 -12 -21
-25 -6 -10 12 -10 15 3 15 9 0 18 -4 22 -9z m40 -11 c3 -5 -1 -10 -9 -10 -9 0
-16 5 -16 10 0 6 4 10 9 10 6 0 13 -4 16 -10z m-315 -39 c0 -14 -6 -17 -27
-13 -16 2 -25 1 -21 -2 6 -7 -26 -46 -37 -46 -3 0 -5 8 -5 18 0 9 17 27 38 39
46 27 52 28 52 4z m30 5 c0 -3 -4 -8 -10 -11 -5 -3 -10 -1 -10 4 0 6 5 11 10
11 6 0 10 -2 10 -4z m484 -21 c14 -13 26 -31 26 -41 0 -12 -7 -10 -34 13 -33
26 -46 53 -27 53 4 0 20 -11 35 -25z m-220 0 c3 -8 17 -15 31 -15 14 0 25 -4
25 -9 0 -5 10 -11 22 -14 26 -7 23 -12 -14 -21 -21 -5 -35 0 -63 25 -19 17
-32 35 -29 40 8 14 21 11 28 -6z m844 -2 c2 -7 -6 -21 -17 -32 -12 -12 -21
-24 -21 -28 0 -10 -32 -43 -42 -43 -4 0 -8 5 -8 10 0 6 5 9 12 8 7 -2 13 2 13
7 2 13 14 43 28 73 11 23 28 25 35 5z m993 -14 c-5 -13 -10 -19 -10 -12 -1 15
10 45 15 40 3 -2 0 -15 -5 -28z m-1938 11 c7 -6 23 -19 37 -30 l25 -19 -27 -1
c-15 0 -30 5 -33 10 -4 6 -11 8 -16 5 -5 -4 -9 5 -9 19 0 28 4 31 23 16z
m-297 -56 c-3 -8 -10 -13 -16 -9 -6 3 -5 16 3 32 9 21 13 23 15 9 2 -9 1 -24
-2 -32z m-348 -8 c2 -27 7 -36 17 -32 9 3 12 0 8 -10 -7 -19 -53 -14 -66 7
-13 20 10 82 27 76 6 -2 12 -20 14 -41z m242 24 c0 -6 -4 -18 -9 -28 -5 -9
-12 -25 -15 -34 -3 -10 -13 -18 -22 -18 -13 0 -15 6 -9 28 10 41 55 84 55 52z
m2092 -12 c-7 -7 -12 -8 -12 -2 0 14 12 26 19 19 2 -3 -1 -11 -7 -17z m-2484
6 c21 -6 22 -8 6 -25 -9 -10 -16 -34 -16 -54 0 -33 -1 -35 -13 -18 -23 33 -26
60 -10 76 11 12 12 17 2 20 -18 8 4 8 31 1z m764 -8 c10 -7 15 -15 12 -18 -10
-10 -44 4 -44 18 0 17 10 17 32 0z m-92 -40 c0 -6 -7 -2 -15 8 -8 11 -15 25
-15 30 0 6 7 2 15 -8 8 -11 15 -25 15 -30z m-625 -6 c9 -18 11 -30 5 -30 -9 0
-30 40 -30 56 0 12 11 1 25 -26z m175 20 c0 -5 -7 -10 -15 -10 -8 0 -15 5 -15
10 0 6 7 10 15 10 8 0 15 -4 15 -10z m320 -10 c0 -22 -8 -25 -30 -10 -13 9
-13 11 0 20 22 15 30 12 30 -10z m-130 -65 c-23 -37 -62 -69 -96 -77 -17 -4
-12 4 20 36 48 48 69 74 81 101 8 19 9 19 12 -3 3 -12 -5 -38 -17 -57z m1680
65 c0 -5 -2 -10 -4 -10 -3 0 -8 5 -11 10 -3 6 -1 10 4 10 6 0 11 -4 11 -10z
m-712 -27 c0 -5 1 -15 4 -23 23 -69 25 -80 16 -86 -5 -3 -2 -14 8 -25 9 -11
14 -22 10 -26 -4 -4 -12 -1 -17 7 -8 12 -10 10 -6 -7 4 -17 1 -23 -13 -23 -23
0 -35 29 -15 36 20 8 19 24 -1 24 -13 0 -14 3 -5 13 6 8 8 33 4 65 -4 36 -2
52 6 52 6 0 10 -3 9 -7z m-888 -13 c0 -5 -4 -10 -10 -10 -5 0 -10 5 -10 10 0
6 5 10 10 10 6 0 10 -4 10 -10z m851 -34 c14 -15 11 -48 -3 -43 -7 2 -12 12
-11 23 1 10 -3 26 -7 35 -5 9 -6 20 -2 24 4 4 9 -1 10 -12 2 -10 8 -22 13 -27z
m94 34 c7 -11 -4 -60 -14 -60 -4 0 -7 16 -8 35 -1 34 9 46 22 25z m925 0 c0
-5 -7 -7 -15 -4 -8 4 -15 8 -15 10 0 2 7 4 15 4 8 0 15 -4 15 -10z m-692 -61
c-6 -4 -7 -16 -3 -28 4 -12 2 -28 -5 -36 -6 -8 -9 -18 -6 -23 3 -6 -1 -15 -9
-22 -12 -10 -15 -9 -16 4 -2 25 -4 30 -12 43 -8 13 21 73 35 73 4 0 8 8 9 18
0 14 2 14 8 -3 5 -11 4 -23 -1 -26z m-1198 27 c0 -3 -4 -8 -10 -11 -5 -3 -10
-1 -10 4 0 6 5 11 10 11 6 0 10 -2 10 -4z m817 -18 c-3 -8 -6 -5 -6 6 -1 11 2
17 5 13 3 -3 4 -12 1 -19z m183 7 c0 -8 -4 -15 -10 -15 -5 0 -10 7 -10 15 0 8
5 15 10 15 6 0 10 -7 10 -15z m-1262 -10 c24 0 30 -10 10 -17 -18 -7 -88 3
-88 11 0 15 14 21 34 14 12 -4 31 -7 44 -8z m59 -1 c-3 -3 -12 -4 -19 -1 -8 3
-5 6 6 6 11 1 17 -2 13 -5z m1339 -30 c-19 -18 -21 -11 -4 19 7 14 13 17 15
10 3 -7 -3 -20 -11 -29z m-341 5 c-5 -14 0 -27 14 -40 16 -15 19 -27 15 -47
-4 -15 -11 -30 -16 -33 -4 -3 -1 -14 7 -25 14 -18 14 -17 15 12 0 42 26 65 32
29 3 -14 2 -25 -2 -25 -4 0 -12 -11 -18 -24 -12 -27 -48 -40 -56 -20 -3 8 -12
14 -21 14 -13 0 -14 -4 -4 -21 8 -15 8 -24 0 -32 -8 -8 -11 -8 -11 1 0 7 -7
12 -16 12 -13 0 -14 -3 -5 -14 9 -10 8 -15 -3 -19 -20 -8 -27 2 -20 28 3 13 1
26 -4 29 -5 3 -13 -5 -16 -19 -5 -18 -11 -23 -24 -18 -15 6 -15 5 -3 -11 13
-15 13 -19 0 -26 -8 -5 -14 -15 -14 -22 0 -7 -7 -13 -15 -13 -8 0 -25 -10 -39
-23 -28 -26 -45 -24 -49 6 -4 23 13 31 21 10 2 -7 8 -9 13 -5 5 5 1 14 -9 22
-34 25 -83 -9 -52 -35 8 -7 12 -16 9 -22 -3 -5 -12 -4 -20 3 -11 9 -14 8 -14
-5 0 -36 -16 -13 -17 25 -2 32 1 40 12 35 11 -4 15 2 15 19 0 30 18 42 27 19
6 -15 7 -15 14 4 5 13 17 22 29 22 11 0 20 4 20 10 0 17 45 51 62 47 16 -5 16
-2 3 30 -16 38 -7 63 23 63 8 0 30 15 48 34 47 48 80 60 69 25z m60 -31 c5
-18 3 -28 -4 -28 -6 0 -11 6 -11 14 0 8 -5 16 -12 18 -7 3 -9 12 -4 23 8 22
22 11 31 -27z m475 7 c8 -7 42 -27 75 -45 67 -36 131 -77 158 -101 10 -9 36
-22 59 -28 27 -9 37 -15 28 -21 -7 -4 -17 -14 -22 -21 -8 -11 -9 -10 -4 4 3 9
1 17 -4 17 -6 0 -10 -4 -10 -9 0 -6 -25 1 -56 15 -67 30 -137 37 -224 23 -36
-5 -76 -11 -90 -14 -20 -3 -25 1 -26 18 0 12 -4 29 -7 37 -4 8 -3 21 2 29 7
11 13 9 29 -7 20 -20 87 -40 98 -29 3 3 -14 16 -38 28 -47 24 -60 38 -53 57 2
6 1 12 -3 12 -4 0 -8 8 -8 18 0 10 7 19 16 19 17 0 47 -37 42 -52 -2 -5 -1 -7
3 -3 4 4 24 -3 44 -16 20 -12 65 -33 101 -45 36 -13 69 -27 75 -32 5 -5 14 -9
19 -9 13 0 -55 47 -97 66 -90 43 -121 64 -139 98 -11 20 0 17 32 -9z m610 4
c-7 -11 -14 -19 -16 -16 -7 7 7 37 17 37 6 0 5 -9 -1 -21z m-50 1 c0 -5 -2
-10 -4 -10 -3 0 -8 5 -11 10 -3 6 -1 10 4 10 6 0 11 -4 11 -10z m-40 -16 c0
-8 -5 -12 -10 -9 -6 4 -8 11 -5 16 9 14 15 11 15 -7z m-1807 -1 c8 -7 -21 -43
-35 -43 -12 0 -10 24 4 38 14 14 22 15 31 5z m-267 -10 c-11 -11 -66 -12 -66
-2 0 5 17 9 37 9 20 0 33 -3 29 -7z m420 -33 c-1 -16 -7 -32 -14 -35 -9 -3
-10 3 -6 23 12 50 22 56 20 12z m1724 26 c0 -2 -7 -6 -15 -10 -8 -3 -15 -1
-15 4 0 6 7 10 15 10 8 0 15 -2 15 -4z m-1835 -16 c-3 -5 -14 -10 -23 -10 -15
0 -15 2 -2 10 20 13 33 13 25 0z m1062 -21 c-3 -10 -1 -22 4 -25 5 -3 9 -12 9
-21 0 -15 -14 -10 -16 5 0 4 -4 15 -9 25 -7 17 -9 17 -26 1 -25 -22 -24 -32 3
-54 16 -13 29 -15 44 -10 19 7 23 5 29 -17 7 -30 4 -35 -29 -37 -28 -1 -30 -4
-17 -25 5 -7 14 -10 20 -6 7 4 20 -2 29 -13 31 -35 69 -31 54 6 -8 21 9 28 22
9 7 -9 23 -17 34 -17 39 0 33 -19 -12 -38 -69 -31 -106 -37 -106 -17 0 8 -6
18 -14 21 -8 3 -20 19 -26 35 -9 21 -19 29 -39 30 -26 0 -26 0 -3 11 42 21 26
36 -33 33 -43 -3 -55 0 -55 11 0 19 38 56 45 43 10 -15 27 2 22 22 -3 11 -2
17 2 15 4 -3 18 5 32 18 27 26 43 24 36 -5z m-1107 -4 c0 -8 -4 -15 -10 -15
-5 0 -7 7 -4 15 4 8 8 15 10 15 2 0 4 -7 4 -15z m990 -5 c0 -5 -4 -10 -10 -10
-5 0 -10 5 -10 10 0 6 5 10 10 10 6 0 10 -4 10 -10z m-130 -10 c0 -5 -4 -10
-10 -10 -5 0 -10 5 -10 10 0 6 5 10 10 10 6 0 10 -4 10 -10z m-958 -32 c-7 -7
-12 -8 -12 -2 0 6 3 14 7 17 3 4 9 5 12 2 2 -3 -1 -11 -7 -17z m548 12 c0 -5
-2 -10 -4 -10 -3 0 -8 5 -11 10 -3 6 -1 10 4 10 6 0 11 -4 11 -10z m1293 -5
c-3 -9 -8 -14 -10 -11 -3 3 -2 9 2 15 9 16 15 13 8 -4z m97 -2 c-1 -21 -27
-59 -35 -51 -5 5 26 68 33 68 1 0 2 -8 2 -17z m-920 -33 c0 -11 -4 -20 -10
-20 -5 0 -10 9 -10 20 0 11 5 20 10 20 6 0 10 -9 10 -20z m25 -40 c-7 -22 -2
-24 24 -11 19 11 61 4 61 -9 0 -12 -53 -31 -88 -32 -36 -1 -34 -13 4 -22 14
-4 39 -17 56 -29 20 -15 31 -18 36 -10 12 18 92 2 92 -18 0 -8 -32 -14 -54
-10 -5 1 -31 6 -57 11 -62 12 -129 54 -129 81 0 11 12 31 26 44 33 30 37 31
29 5z m-85 -9 c-13 -11 -27 -19 -31 -18 -3 1 -16 -9 -27 -23 -12 -14 -21 -19
-22 -12 0 8 -5 10 -12 6 -7 -5 0 6 17 24 21 22 36 30 49 26 12 -4 16 -2 12 5
-5 7 2 11 16 11 l23 0 -25 -19z m876 -9 c-9 -9 -37 8 -31 18 5 8 11 7 21 -1 8
-6 12 -14 10 -17z m-229 -13 c73 -42 54 -56 -24 -17 -34 16 -67 28 -74 26 -7
-2 5 -12 27 -22 42 -20 114 -83 114 -101 -1 -5 -11 2 -23 16 -27 31 -78 62
-131 79 -33 11 -36 14 -21 22 14 8 15 12 4 19 -9 6 1 9 30 9 31 0 60 -9 98
-31z m148 -8 c-3 -3 -10 1 -15 9 -8 12 -10 10 -10 -7 0 -12 -4 -24 -9 -28 -6
-3 -8 4 -6 15 7 34 15 42 31 29 8 -6 12 -14 9 -18z m135 14 c0 -8 -4 -15 -9
-15 -5 0 -11 7 -15 15 -3 9 0 15 9 15 8 0 15 -7 15 -15z m-517 -10 c-3 -9 -8
-14 -10 -11 -3 3 -2 9 2 15 9 16 15 13 8 -4z m427 5 c0 -5 -2 -10 -4 -10 -3 0
-8 5 -11 10 -3 6 -1 10 4 10 6 0 11 -4 11 -10z m-1280 -20 c0 -5 -8 -10 -17
-10 -15 0 -16 2 -3 10 19 12 20 12 20 0z m920 -10 c0 -5 -9 -10 -20 -10 -11 0
-20 5 -20 10 0 6 9 10 20 10 11 0 20 -4 20 -10z m-1133 -22 c-3 -8 -6 -5 -6 6
-1 11 2 17 5 13 3 -3 4 -12 1 -19z m1223 -7 c39 -24 85 -81 66 -81 -2 0 -23
18 -46 40 -23 22 -53 43 -66 46 -13 3 -24 10 -24 14 0 11 39 0 70 -19z m280 8
c-7 -11 -14 -19 -16 -16 -7 7 7 37 17 37 6 0 5 -9 -1 -21z m-60 7 c0 -3 -4 -8
-10 -11 -5 -3 -10 -1 -10 4 0 6 5 11 10 11 6 0 10 -2 10 -4z m102 -4 c-6 -5
-19 -17 -27 -28 -14 -18 -14 -17 -4 9 7 15 19 27 28 27 12 0 13 -2 3 -8z
m-1568 -21 c17 -19 17 -19 -3 -14 -12 3 -21 12 -21 19 0 18 4 18 24 -5z m1408
-13 c-13 -13 -32 -2 -32 18 0 12 4 13 21 3 14 -7 18 -14 11 -21z m-654 -28
c-2 -7 -10 1 -17 16 -12 27 -11 28 4 12 10 -9 16 -21 13 -28z m-581 5 c-15
-16 -19 -13 -11 9 3 9 10 13 15 10 5 -3 3 -11 -4 -19z m1072 -11 c14 -13 21
-27 17 -31 -4 -4 -18 4 -30 20 -12 15 -29 27 -39 27 -9 0 -17 5 -17 11 0 16
42 0 69 -27z m-3132 -6 c-3 -8 -6 -5 -6 6 -1 11 2 17 5 13 3 -3 4 -12 1 -19z
m2371 -9 c-3 -8 -7 -3 -11 10 -4 17 -3 21 5 13 5 -5 8 -16 6 -23z m117 12 c-8
-14 -45 -14 -45 0 0 6 9 8 20 4 13 -4 20 -2 20 6 0 7 3 10 6 6 3 -3 3 -10 -1
-16z m124 -45 c14 -53 8 -55 -20 -9 -13 21 -27 40 -31 41 -5 2 -3 10 3 18 17
20 34 2 48 -50z m390 47 c8 -14 12 -15 19 -5 7 10 11 10 22 -3 7 -9 21 -13 31
-10 9 3 20 2 23 -4 9 -14 -21 -22 -47 -12 -13 5 -40 8 -60 7 -38 -1 -47 10
-25 32 16 16 25 15 37 -5z m-1049 -8 c0 -8 -9 -19 -20 -25 -16 -8 -20 -8 -20
4 0 10 6 13 15 10 9 -4 15 0 15 10 0 9 2 16 5 16 3 0 5 -7 5 -15z m370 5 c0
-5 -2 -10 -4 -10 -3 0 -8 5 -11 10 -3 6 -1 10 4 10 6 0 11 -4 11 -10z m-40
-24 c-7 -7 -14 -6 -21 1 -9 9 -7 12 9 10 14 -1 18 -5 12 -11z m135 -6 c-3 -11
-2 -20 3 -20 5 0 7 -10 5 -22 -4 -21 -9 -23 -56 -19 -29 2 -46 6 -39 8 6 3 10
8 7 13 -3 4 4 10 15 13 11 3 20 1 20 -4 0 -22 19 -6 25 21 4 17 11 30 16 30 6
0 7 -9 4 -20z m860 10 c-3 -5 -10 -10 -16 -10 -5 0 -9 5 -9 10 0 6 7 10 16 10
8 0 12 -4 9 -10z m-825 -10 c0 -5 -2 -10 -4 -10 -3 0 -8 5 -11 10 -3 6 -1 10
4 10 6 0 11 -4 11 -10z m40 0 c0 -5 -2 -10 -4 -10 -3 0 -8 5 -11 10 -3 6 -1
10 4 10 6 0 11 -4 11 -10z m215 0 c3 -5 1 -10 -4 -10 -6 0 -11 5 -11 10 0 6 2
10 4 10 3 0 8 -4 11 -10z m526 -23 c-13 -13 -26 -3 -16 12 3 6 11 8 17 5 6 -4
6 -10 -1 -17z m-763 -47 c12 -33 7 -37 -21 -15 -13 9 -17 20 -12 34 8 27 20
20 33 -19z m111 9 c11 -18 17 -38 14 -46 -4 -10 -10 -5 -21 17 -9 18 -21 34
-29 37 -18 7 -17 23 2 23 8 0 24 -14 34 -31z m271 10 c0 -5 4 -8 8 -5 11 6 56
-34 48 -42 -3 -3 -16 0 -29 7 -26 14 -53 51 -37 51 5 0 10 -5 10 -11z m-68
-54 c11 -15 3 -17 -46 -10 -50 8 -59 21 -24 34 22 8 55 -3 70 -24z m-1492 4
c0 -4 -7 -6 -15 -3 -8 4 -15 10 -15 15 0 4 7 6 15 3 8 -4 15 -10 15 -15z m928
4 c0 -10 3 -26 7 -35 4 -10 3 -18 -3 -18 -5 0 -12 10 -16 23 -8 32 -7 47 3 47
6 0 9 -8 9 -17z m105 -28 c10 -21 12 -35 6 -35 -16 0 -47 43 -42 57 8 21 18
15 36 -22z m222 24 c12 -19 -5 -23 -22 -6 -16 16 -16 17 -1 17 9 0 20 -5 23
-11z m125 -18 c0 -5 -8 -11 -17 -15 -10 -3 -25 -9 -33 -12 -8 -3 -4 4 9 15 25
22 41 27 41 12z m210 -6 c13 -16 8 -18 -27 -9 -13 4 -23 10 -23 15 0 15 37 10
50 -6z m370 9 c-8 -3 -36 -15 -62 -26 -47 -21 -67 -20 -53 1 3 6 15 11 26 11
10 0 19 5 19 10 0 6 19 10 43 9 23 0 35 -3 27 -5z m-1790 -19 c0 -8 -4 -15
-10 -15 -5 0 -10 7 -10 15 0 8 5 15 10 15 6 0 10 -7 10 -15z m940 -6 c0 -14
-17 -10 -23 5 -4 10 -1 13 9 9 7 -3 14 -9 14 -14z m320 -14 c0 -8 -3 -15 -6
-15 -3 0 -12 7 -20 15 -14 13 -13 15 5 15 12 0 21 -6 21 -15z m188 -17 c19
-16 10 -19 -31 -7 -43 12 -52 35 -10 24 16 -4 34 -11 41 -17z m-258 -2 c0 -3
-4 -8 -10 -11 -5 -3 -10 -1 -10 4 0 6 5 11 10 11 6 0 10 -2 10 -4z m569 -10
c-14 -12 -129 -61 -129 -55 0 14 43 39 77 45 18 3 36 11 39 16 3 5 9 7 12 4 3
-3 3 -8 1 -10z m-605 -22 c17 -6 22 -24 8 -24 -5 0 -17 7 -28 15 -19 15 -8 20
20 9z m79 -5 c17 -8 30 -8 44 -1 11 6 25 7 33 2 19 -12 12 -16 -35 -24 -34 -6
-44 -3 -60 13 -21 24 -17 26 18 10z m-233 -19 c34 0 69 -14 59 -24 -10 -10
-112 20 -117 34 -4 12 -2 13 9 3 7 -7 29 -13 49 -13z m360 0 c0 -5 -7 -10 -16
-10 -8 0 -12 5 -9 10 3 6 10 10 16 10 5 0 9 -4 9 -10z m-255 -30 c3 -5 -1 -10
-9 -10 -9 0 -16 5 -16 10 0 6 4 10 9 10 6 0 13 -4 16 -10z m35 -20 c0 -5 -2
-10 -4 -10 -3 0 -8 5 -11 10 -3 6 -1 10 4 10 6 0 11 -4 11 -10z m-110 -10 c0
-5 -4 -10 -10 -10 -5 0 -10 5 -10 10 0 6 5 10 10 10 6 0 10 -4 10 -10z m-585
-11 c10 -15 -1 -23 -20 -15 -9 3 -13 10 -10 16 8 13 22 13 30 -1z m59 -40 c-3
-5 -10 -7 -15 -3 -5 3 -7 10 -3 15 3 5 10 7 15 3 5 -3 7 -10 3 -15z m621 11
c3 -6 -1 -7 -9 -4 -18 7 -21 14 -7 14 6 0 13 -4 16 -10z m-2375 -31 c11 -19
10 -20 -9 -9 -12 6 -21 15 -21 20 0 18 19 11 30 -11z m1541 -10 c23 -11 38
-23 35 -26 -3 -3 -17 2 -30 11 -14 9 -32 16 -40 16 -8 0 -18 5 -21 10 -10 16
13 12 56 -11z m75 6 c17 -13 16 -14 -13 -4 -34 11 -42 19 -20 19 7 0 22 -7 33
-15z m-1492 -26 c19 -11 38 -30 42 -41 6 -19 7 -19 16 -5 18 33 45 18 52 -29
1 -9 11 -23 21 -30 10 -8 16 -16 13 -20 -8 -7 -58 43 -59 59 0 9 -2 9 -5 1 -5
-12 -44 -7 -44 6 0 16 -37 47 -62 54 -16 3 -28 11 -28 16 0 15 15 12 54 -11z
m2453 -15 c-10 -11 -116 -14 -122 -4 -4 6 20 10 61 10 37 0 65 -3 61 -6z
m-2734 -58 c4 -10 1 -13 -9 -9 -7 3 -14 9 -14 14 0 14 17 10 23 -5z m37 4 c0
-5 7 -10 16 -10 8 0 12 -4 9 -10 -9 -15 -19 -12 -33 10 -7 12 -8 20 -2 20 5 0
10 -4 10 -10z m453 -70 c18 -22 7 -26 -24 -9 -11 5 -17 14 -14 20 9 14 19 11
38 -11z m47 -34 c0 -2 -7 -7 -16 -10 -8 -3 -12 -2 -9 4 6 10 25 14 25 6z m70
-41 c14 -16 10 -18 -14 -9 -9 3 -16 10 -16 15 0 14 16 11 30 -6z m50 -25 c12
-8 11 -10 -7 -10 -13 0 -23 5 -23 10 0 13 11 13 30 0z m78 -32 c2 -4 12 -8 22
-8 10 0 28 -9 41 -20 l24 -20 -35 6 c-19 3 -47 15 -62 25 -15 10 -32 19 -38
19 -5 0 -10 5 -10 10 0 12 53 1 58 -12z m187 -82 c33 -14 70 -26 82 -26 21 0
40 -16 30 -26 -8 -8 -130 28 -145 43 -7 7 -22 13 -32 13 -21 0 -33 13 -23 24
4 4 12 4 17 2 6 -3 38 -16 71 -30z m178 -57 c36 -10 38 -11 20 -24 -10 -8 -27
-14 -38 -14 l-20 0 20 9 c15 7 16 9 4 9 -17 1 -49 31 -33 31 5 0 26 -5 47 -11z
m780 -86 c-7 -2 -21 -2 -30 0 -10 3 -4 5 12 5 17 0 24 -2 18 -5z"/>
<path d="M6785 6381 c-3 -5 -1 -12 5 -16 5 -3 10 1 10 9 0 18 -6 21 -15 7z"/>
<path d="M6856 6277 c3 -10 9 -15 12 -12 3 3 0 11 -7 18 -10 9 -11 8 -5 -6z"/>
<path d="M5656 6054 c-9 -24 -2 -26 12 -4 7 11 8 20 3 20 -5 0 -12 -7 -15 -16z"/>
<path d="M5801 5994 c0 -11 3 -14 6 -6 3 7 2 16 -1 19 -3 4 -6 -2 -5 -13z"/>
<path d="M5855 5970 c3 -5 8 -10 11 -10 2 0 4 5 4 10 0 6 -5 10 -11 10 -5 0
-7 -4 -4 -10z"/>
<path d="M5780 5960 c0 -5 5 -10 10 -10 6 0 10 5 10 10 0 6 -4 10 -10 10 -5 0
-10 -4 -10 -10z"/>
<path d="M5842 5924 c-7 -8 -8 -14 -3 -14 10 0 25 19 20 25 -2 1 -10 -3 -17
-11z"/>
<path d="M5870 5894 c0 -8 5 -12 10 -9 6 4 8 11 5 16 -9 14 -15 11 -15 -7z"/>
<path d="M5945 5820 c-3 -5 -1 -10 4 -10 6 0 11 5 11 10 0 6 -2 10 -4 10 -3 0
-8 -4 -11 -10z"/>
<path d="M6100 5647 c0 -9 38 -47 47 -47 6 0 22 -9 37 -21 26 -21 37 -14 14
10 -11 10 -8 11 15 6 17 -5 27 -3 27 4 0 6 -9 11 -21 11 -12 0 -23 8 -26 20
-5 20 -33 29 -33 10 0 -6 -9 -6 -26 0 -27 11 -34 12 -34 7z"/>
<path d="M6423 5623 c-31 -21 -30 -47 1 -41 19 4 22 1 18 -14 -3 -15 2 -18 27
-18 17 0 31 5 31 12 0 6 8 1 19 -10 l18 -22 18 33 c14 27 15 38 6 55 -14 26
-71 32 -71 7 0 -14 -29 -10 -40 6 -3 3 -15 0 -27 -8z m127 -33 c0 -11 -2 -20
-4 -20 -2 0 -6 9 -9 20 -3 11 -1 20 4 20 5 0 9 -9 9 -20z"/>
<path d="M6285 5609 c-11 -16 -1 -19 13 -3 7 8 8 14 3 14 -5 0 -13 -5 -16 -11z"/>
<path d="M6325 5579 c-11 -17 1 -21 15 -4 8 9 8 15 2 15 -6 0 -14 -5 -17 -11z"/>
<path d="M6350 5554 c0 -11 6 -14 21 -9 15 5 19 4 15 -4 -4 -6 -1 -11 6 -11 7
-1 31 -9 53 -20 45 -22 55 -24 55 -11 0 10 -118 71 -138 71 -6 0 -12 -7 -12
-16z"/>
<path d="M6220 5553 c0 -4 15 -21 32 -38 l32 -30 -23 32 c-23 34 -41 50 -41
36z"/>
<path d="M6695 5420 c-3 -5 -1 -10 4 -10 6 0 11 5 11 10 0 6 -2 10 -4 10 -3 0
-8 -4 -11 -10z"/>
<path d="M6811 5414 c0 -11 3 -14 6 -6 3 7 2 16 -1 19 -3 4 -6 -2 -5 -13z"/>
<path d="M6365 5380 c-3 -5 -2 -10 4 -10 5 0 13 5 16 10 3 6 2 10 -4 10 -5 0
-13 -4 -16 -10z"/>
<path d="M6288 5348 c-16 -5 -28 -14 -28 -19 0 -6 6 -7 13 -2 6 4 18 8 25 9 8
2 16 5 20 8 11 11 -3 13 -30 4z"/>
<path d="M6330 5181 c-14 -4 -20 -9 -15 -12 6 -3 30 0 55 7 37 10 40 12 15 12
-16 0 -41 -3 -55 -7z"/>
<path d="M6535 5164 c17 -17 22 -17 28 -1 3 7 -5 13 -19 13 -20 2 -21 0 -9
-12z"/>
<path d="M6278 5146 c-3 -14 -1 -26 3 -26 5 0 5 -8 2 -17 -7 -17 -6 -17 11 -1
15 16 15 21 3 44 l-14 27 -5 -27z"/>
<path d="M6947 5138 c12 -20 15 -58 5 -58 -5 0 -16 8 -23 17 -10 11 -10 14 -1
9 6 -4 12 -3 12 2 0 6 -7 12 -15 16 -8 3 -15 1 -15 -4 0 -4 -18 -1 -39 7 -43
17 -148 10 -120 -8 11 -6 8 -9 -11 -10 -18 -1 -14 -4 15 -10 22 -5 47 -12 55
-15 8 -4 26 -8 40 -9 49 -5 91 -36 129 -95 21 -33 42 -71 45 -85 4 -14 11 -25
16 -25 6 0 10 -8 10 -18 0 -10 5 -23 12 -30 6 -6 13 -20 14 -29 2 -10 8 -37
15 -60 7 -23 11 -45 8 -48 -10 -9 -68 25 -74 45 -5 17 -8 17 -33 4 -27 -14
-27 -14 -34 27 -4 23 -12 47 -19 55 -9 11 -8 15 5 20 11 4 22 -1 31 -12 13
-17 14 -12 15 49 0 53 -3 67 -15 67 -8 0 -15 8 -15 18 -1 16 -2 16 -15 -1 -13
-18 -16 -16 -53 21 -41 41 -81 53 -151 47 -49 -5 -56 -20 -10 -23 23 -1 39 2
39 8 0 6 7 4 16 -5 13 -13 19 -14 25 -4 6 10 12 9 28 -5 11 -10 18 -22 16 -27
-3 -4 3 -14 14 -21 32 -22 60 -80 58 -120 l-1 -38 -27 26 c-28 26 -55 25 -45
-3 4 -9 1 -13 -6 -11 -23 8 -49 -39 -52 -94 -2 -29 -7 -68 -11 -87 -6 -25 -5
-32 3 -27 7 4 12 14 12 22 0 8 5 14 11 14 5 0 7 5 3 11 -3 6 -1 15 5 19 9 5 9
13 0 33 -15 32 4 77 31 77 31 0 70 -25 70 -45 -1 -19 -1 -19 -11 -2 -8 14 -14
16 -24 7 -11 -9 -12 -16 -2 -31 9 -14 9 -22 1 -27 -6 -4 -10 -25 -9 -47 3 -58
3 -57 28 -50 17 5 18 4 7 -4 -8 -5 -11 -13 -8 -17 4 -3 -3 -15 -15 -25 -19
-16 -20 -20 -7 -29 19 -13 30 -13 30 0 0 6 9 10 20 10 22 0 34 37 45 138 5 44
11 62 21 62 21 0 15 -138 -6 -161 -8 -8 -22 -26 -30 -39 -71 -108 -179 -190
-250 -190 -44 0 -53 6 -75 53 -11 23 -24 37 -36 37 -52 0 18 -105 77 -116 18
-3 35 -13 39 -22 5 -14 7 -14 15 -2 11 17 56 24 65 10 4 -6 -1 -18 -11 -25
-13 -10 -15 -14 -6 -15 22 0 72 40 72 58 0 13 2 14 8 4 7 -9 13 -8 26 7 18 19
17 20 -10 17 -15 -2 -33 -10 -39 -20 -16 -21 -22 -20 -28 4 -3 13 1 21 14 25
10 4 19 12 19 18 0 7 7 4 14 -6 13 -17 16 -16 44 10 18 17 33 43 37 65 7 37
29 77 38 68 3 -3 -1 -22 -8 -44 -7 -21 -16 -50 -20 -65 l-7 -26 25 23 c14 13
31 37 37 53 7 16 17 26 23 22 6 -4 8 0 4 10 -4 11 -2 14 9 10 7 -3 14 -1 14 4
0 5 14 23 31 41 33 34 52 85 64 171 5 38 4 52 -4 47 -7 -5 -12 5 -13 26 -3 56
2 92 14 99 9 6 9 13 0 31 -7 13 -10 15 -8 6 3 -9 -2 -31 -10 -48 l-16 -31 -30
48 c-17 26 -35 61 -41 77 -5 16 -18 37 -28 47 -10 10 -20 40 -24 76 -8 75 -11
83 -30 83 -11 0 -13 -4 -8 -12z m30 -250 c-3 -8 -6 -5 -6 6 -1 11 2 17 5 13 3
-3 4 -12 1 -19z m61 -243 c-3 -3 -9 2 -12 12 -6 14 -5 15 5 6 7 -7 10 -15 7
-18z m12 -31 c0 -7 -27 -34 -34 -34 -12 0 -6 28 7 33 17 8 27 8 27 1z m-102
-56 c-2 -6 -10 -14 -16 -16 -7 -2 -10 2 -6 12 7 18 28 22 22 4z m-33 -158 c3
-5 1 -10 -4 -10 -6 0 -11 5 -11 10 0 6 2 10 4 10 3 0 8 -4 11 -10z"/>
<path d="M6685 5120 c-19 -8 -19 -9 -1 -9 15 -1 16 -4 6 -16 -11 -13 -10 -14
4 -9 9 3 16 15 16 25 0 10 -1 19 -2 18 -2 0 -12 -4 -23 -9z"/>
<path d="M6331 5024 c0 -11 3 -14 6 -6 3 7 2 16 -1 19 -3 4 -6 -2 -5 -13z"/>
<path d="M7145 4969 c-4 -6 -3 -15 3 -21 6 -6 11 -4 15 6 7 18 -9 31 -18 15z"/>
<path d="M7110 4941 c0 -6 5 -13 10 -16 6 -3 10 1 10 9 0 9 -4 16 -10 16 -5 0
-10 -4 -10 -9z"/>
<path d="M6431 4925 c1 -19 18 -51 18 -35 0 8 -4 22 -9 30 -5 8 -9 11 -9 5z"/>
<path d="M6772 4908 c2 -13 -48 -97 -65 -109 -5 -4 -4 -10 2 -13 6 -4 14 1 18
11 23 64 66 88 113 63 15 -8 17 -6 13 10 -8 29 -44 54 -55 37 -6 -9 -8 -9 -8
1 0 6 -5 12 -10 12 -6 0 -10 -6 -8 -12z"/>
<path d="M7165 4910 c3 -5 8 -10 11 -10 2 0 4 5 4 10 0 6 -5 10 -11 10 -5 0
-7 -4 -4 -10z"/>
<path d="M6651 4834 c0 -11 3 -14 6 -6 3 7 2 16 -1 19 -3 4 -6 -2 -5 -13z"/>
<path d="M6365 4831 c-3 -5 -1 -12 5 -16 5 -3 10 1 10 9 0 18 -6 21 -15 7z"/>
<path d="M6590 4823 c0 -18 40 -107 46 -101 3 3 -6 30 -20 59 -14 30 -25 49
-26 42z"/>
<path d="M6666 4796 c3 -9 11 -16 16 -16 13 0 5 23 -10 28 -7 2 -10 -2 -6 -12z"/>
<path d="M6690 4743 c0 -13 5 -23 10 -23 13 0 13 11 0 30 -8 12 -10 11 -10 -7z"/>
<path d="M6845 4610 c-3 -5 -1 -10 4 -10 6 0 11 5 11 10 0 6 -2 10 -4 10 -3 0
-8 -4 -11 -10z"/>
<path d="M6633 4578 c-14 -18 -33 -78 -25 -78 8 0 44 81 38 87 -2 2 -8 -2 -13
-9z"/>
<path d="M6695 4538 c-4 -18 -12 -39 -17 -45 -8 -10 -6 -13 6 -13 18 0 22 -15
6 -25 -17 -11 -11 -35 9 -35 29 0 33 14 15 49 -12 24 -13 38 -5 61 5 16 6 32
1 35 -5 3 -12 -9 -15 -27z"/>
<path d="M6767 4553 c-4 -3 -7 -11 -7 -17 0 -6 5 -5 12 2 6 6 9 14 7 17 -3 3
-9 2 -12 -2z"/>
<path d="M6771 4516 c-9 -11 -6 -18 19 -36 16 -12 30 -18 30 -14 0 5 5 3 11
-3 16 -16 43 12 34 35 -5 12 -9 13 -12 5 -3 -7 -16 -13 -29 -13 -17 0 -24 6
-24 20 0 23 -13 26 -29 6z"/>
<path d="M6604 4465 c-3 -8 -4 -20 -2 -27 3 -7 7 -1 10 15 6 29 1 36 -8 12z"/>
<path d="M6291 4433 c-1 -6 -4 -20 -7 -30 -5 -17 -5 -17 6 0 6 10 9 23 6 30
-3 9 -5 9 -5 0z"/>
<path d="M6790 4430 c0 -5 -11 -10 -24 -10 -39 0 -56 -10 -56 -34 0 -11 4 -16
8 -11 4 6 21 11 39 12 38 3 79 33 60 45 -17 11 -27 10 -27 -2z"/>
<path d="M6413 4389 c-12 -32 -9 -54 6 -45 7 5 14 76 8 76 -1 0 -8 -14 -14
-31z"/>
<path d="M6364 4386 c-10 -26 -82 -60 -99 -46 -8 6 -11 19 -8 27 4 11 2 14 -5
9 -16 -10 -15 -20 6 -46 18 -22 19 -22 53 -6 35 17 76 63 65 73 -3 3 -8 -2
-12 -11z"/>
<path d="M6441 4354 c0 -11 3 -14 6 -6 3 7 2 16 -1 19 -3 4 -6 -2 -5 -13z"/>
<path d="M6650 4364 c0 -3 7 -12 15 -20 13 -14 15 -13 15 5 0 12 -6 21 -15 21
-8 0 -15 -3 -15 -6z"/>
<path d="M6735 4230 c-3 -5 1 -10 10 -10 9 0 13 5 10 10 -3 6 -8 10 -10 10 -2
0 -7 -4 -10 -10z"/>
<path d="M6490 3949 c0 -5 11 -9 25 -9 14 0 25 2 25 4 0 2 -11 6 -25 8 -14 3
-25 1 -25 -3z"/>
<path d="M6095 6170 c3 -5 10 -10 16 -10 5 0 9 5 9 10 0 6 -7 10 -16 10 -8 0
-12 -4 -9 -10z"/>
<path d="M6185 6160 c-3 -5 1 -10 10 -10 9 0 13 5 10 10 -3 6 -8 10 -10 10 -2
0 -7 -4 -10 -10z"/>
<path d="M5984 6111 c-13 -13 0 -20 29 -14 47 8 56 22 13 20 -21 -1 -39 -4
-42 -6z"/>
<path d="M6018 6073 c-10 -2 -18 -11 -18 -20 0 -12 3 -13 14 -4 8 7 27 16 43
21 27 8 27 8 3 8 -14 0 -33 -2 -42 -5z"/>
<path d="M6060 6035 c-7 -9 -9 -19 -5 -23 4 -4 10 -1 12 6 3 6 11 12 19 12 8
0 14 5 14 10 0 15 -26 12 -40 -5z"/>
<path d="M6177 6001 c4 -17 8 -18 29 -9 18 8 21 14 12 20 -25 15 -46 9 -41
-11z"/>
<path d="M6260 6000 c0 -12 65 -40 93 -40 13 0 2 9 -29 25 -54 27 -64 30 -64
15z"/>
<path d="M6055 5970 c3 -5 8 -10 11 -10 2 0 4 5 4 10 0 6 -5 10 -11 10 -5 0
-7 -4 -4 -10z"/>
<path d="M6371 5914 c0 -11 3 -14 6 -6 3 7 2 16 -1 19 -3 4 -6 -2 -5 -13z"/>
<path d="M6138 5913 c7 -3 16 -2 19 1 4 3 -2 6 -13 5 -11 0 -14 -3 -6 -6z"/>
<path d="M6200 5916 c0 -2 7 -6 15 -10 8 -3 15 -1 15 4 0 6 -7 10 -15 10 -8 0
-15 -2 -15 -4z"/>
<path d="M6265 5870 c4 -6 11 -8 16 -5 14 9 11 15 -7 15 -8 0 -12 -5 -9 -10z"/>
<path d="M6285 5810 c-3 -6 1 -7 9 -4 18 7 21 14 7 14 -6 0 -13 -4 -16 -10z"/>
<path d="M5500 5866 c0 -9 5 -16 10 -16 6 0 10 4 10 9 0 6 -4 13 -10 16 -5 3
-10 -1 -10 -9z"/>
<path d="M5480 5842 c0 -5 8 -16 18 -25 14 -13 21 -14 30 -5 12 12 12 12 25
-32 4 -12 6 -12 12 3 5 13 1 25 -14 40 -13 14 -21 17 -21 8 0 -10 -6 -10 -25
3 -14 9 -25 13 -25 8z"/>
<path d="M5530 5775 c0 -3 6 -14 12 -25 10 -16 10 -22 -4 -32 -16 -12 -16 -15
2 -37 11 -13 20 -22 21 -20 0 2 2 24 4 49 3 37 0 48 -16 58 -10 7 -19 10 -19
7z"/>
<path d="M5615 5690 c3 -5 11 -10 16 -10 6 0 7 5 4 10 -3 6 -11 10 -16 10 -6
0 -7 -4 -4 -10z"/>
<path d="M5780 5643 c0 -5 5 -15 10 -23 8 -12 10 -11 10 8 0 12 -4 22 -10 22
-5 0 -10 -3 -10 -7z"/>
<path d="M5741 5584 c0 -11 3 -14 6 -6 3 7 2 16 -1 19 -3 4 -6 -2 -5 -13z"/>
<path d="M5687 5527 c-3 -9 -2 -19 4 -23 15 -9 18 -2 9 20 -6 17 -7 18 -13 3z"/>
<path d="M6011 5394 c0 -11 3 -14 6 -6 3 7 2 16 -1 19 -3 4 -6 -2 -5 -13z"/>
<path d="M5731 5326 c-16 -19 -11 -29 8 -17 7 5 12 14 9 21 -3 9 -8 7 -17 -4z"/>
<path d="M5674 5119 c-3 -6 -12 -8 -18 -6 -8 3 -13 -5 -13 -24 0 -15 4 -26 9
-23 4 3 8 12 8 20 0 12 19 19 43 15 4 0 7 3 7 8 0 14 -29 22 -36 10z"/>
<path d="M5610 5060 c0 -5 5 -10 10 -10 6 0 10 5 10 10 0 6 -4 10 -10 10 -5 0
-10 -4 -10 -10z"/>
<path d="M5572 5024 c-11 -12 -10 -15 3 -20 21 -8 29 1 18 19 -7 13 -10 13
-21 1z"/>
<path d="M5600 5030 c0 -5 5 -10 10 -10 6 0 10 5 10 10 0 6 -4 10 -10 10 -5 0
-10 -4 -10 -10z"/>
<path d="M5694 5015 c-10 -8 -14 -14 -9 -14 6 0 19 6 29 14 11 8 15 15 10 15
-6 0 -19 -7 -30 -15z"/>
<path d="M6080 5009 c0 -18 2 -19 15 -9 15 12 12 30 -6 30 -5 0 -9 -10 -9 -21z"/>
<path d="M5530 4974 c15 -17 30 -18 30 -1 0 7 -9 13 -21 14 -17 2 -18 -1 -9
-13z"/>
<path d="M5646 4975 c-11 -8 -17 -17 -14 -20 3 -3 16 3 29 14 27 23 14 28 -15
6z"/>
<path d="M5578 4928 c-21 -25 -23 -38 -7 -38 6 0 9 -7 5 -15 -3 -8 -1 -15 4
-15 10 0 14 21 11 47 -1 8 5 10 14 7 17 -7 18 -3 9 20 -8 21 -16 20 -36 -6z"/>
<path d="M5729 4924 c-12 -14 -11 -16 5 -13 11 2 21 10 24 17 5 17 -13 15 -29
-4z"/>
<path d="M5650 4870 c0 -5 -7 -10 -15 -10 -8 0 -15 -5 -15 -10 0 -7 6 -7 20 0
18 10 28 30 15 30 -3 0 -5 -4 -5 -10z"/>
<path d="M5566 4831 c-21 -23 -5 -37 24 -21 17 9 19 14 9 26 -14 17 -13 18
-33 -5z"/>
<path d="M5887 4833 c-11 -10 -8 -20 7 -26 10 -4 12 0 9 14 -6 21 -7 22 -16
12z"/>
<path d="M5796 4745 c4 -8 8 -15 10 -15 2 0 4 7 4 15 0 8 -4 15 -10 15 -5 0
-7 -7 -4 -15z"/>
<path d="M5795 4691 c-3 -5 -1 -12 5 -16 5 -3 10 1 10 9 0 18 -6 21 -15 7z"/>
<path d="M5848 4590 c-22 -20 -23 -36 -4 -43 9 -4 12 0 9 12 -6 25 24 35 36
13 10 -16 10 -16 11 0 0 27 -32 38 -52 18z"/>
<path d="M5759 4598 c0 -2 -3 -16 -5 -33 -5 -28 -4 -29 9 -10 12 15 18 17 29
8 11 -10 14 -8 14 7 0 10 -4 17 -7 14 -4 -2 -10 0 -14 6 -5 9 -24 14 -26 8z"/>
<path d="M6060 4561 c0 -11 5 -23 10 -26 6 -3 10 3 10 14 0 11 -4 23 -10 26
-5 3 -10 -3 -10 -14z"/>
<path d="M5590 4539 c0 -5 5 -7 10 -4 6 3 10 8 10 11 0 2 -4 4 -10 4 -5 0 -10
-5 -10 -11z"/>
<path d="M6010 4540 c0 -5 5 -10 10 -10 6 0 10 5 10 10 0 6 -4 10 -10 10 -5 0
-10 -4 -10 -10z"/>
<path d="M5960 4511 c0 -11 -6 -22 -12 -24 -8 -3 -6 -6 5 -6 12 -1 17 7 17 24
0 14 -2 25 -5 25 -3 0 -5 -9 -5 -19z"/>
<path d="M6081 4517 c2 -1 14 -11 27 -21 12 -11 22 -16 22 -13 0 10 -31 37
-42 37 -6 0 -9 -1 -7 -3z"/>
<path d="M6036 4495 c-3 -8 -1 -15 4 -15 13 0 22 18 11 24 -5 3 -11 -1 -15 -9z"/>
<path d="M6071 4484 c0 -11 3 -14 6 -6 3 7 2 16 -1 19 -3 4 -6 -2 -5 -13z"/>
<path d="M5985 4480 c-3 -5 1 -10 9 -10 9 0 16 5 16 10 0 6 -4 10 -9 10 -6 0
-13 -4 -16 -10z"/>
<path d="M6021 4463 c-1 -6 -4 -20 -7 -30 -5 -17 -5 -17 6 0 6 10 9 23 6 30
-3 9 -5 9 -5 0z"/>
<path d="M6047 4443 c-11 -10 -8 -27 6 -46 10 -15 12 -13 12 18 0 34 -5 42
-18 28z"/>
<path d="M5977 4434 c-6 -10 20 -51 27 -43 2 2 -1 15 -8 28 -7 13 -16 20 -19
15z"/>
<path d="M6021 4358 c0 -16 2 -18 6 -8 3 8 11 18 17 22 7 5 4 8 -6 8 -12 0
-18 -7 -17 -22z"/>
<path d="M7302 5500 c0 -14 2 -19 5 -12 2 6 2 18 0 25 -3 6 -5 1 -5 -13z"/>
<path d="M6870 5631 c0 -5 5 -13 10 -16 6 -3 10 -2 10 4 0 5 -4 13 -10 16 -5
3 -10 2 -10 -4z"/>
<path d="M5585 5220 c-4 -7 -1 -16 6 -21 17 -10 26 8 11 23 -6 6 -12 6 -17 -2z"/>
<path d="M5010 4959 c0 -5 5 -7 10 -4 6 3 10 8 10 11 0 2 -4 4 -10 4 -5 0 -10
-5 -10 -11z"/>
<path d="M5960 3900 c0 -5 5 -10 10 -10 6 0 10 5 10 10 0 6 -4 10 -10 10 -5 0
-10 -4 -10 -10z"/>
<path d="M6026 3876 c3 -9 11 -16 16 -16 13 0 5 23 -10 28 -7 2 -10 -2 -6 -12z"/>
<path d="M3120 6646 c0 -9 -6 -16 -14 -16 -18 0 -29 -42 -13 -52 18 -12 27
-10 27 7 0 7 7 18 16 23 18 10 16 43 -3 50 -7 2 -13 -3 -13 -12z"/>
<path d="M3056 6563 c-6 -14 -5 -15 5 -6 7 7 10 15 7 18 -3 3 -9 -2 -12 -12z"/>
<path d="M2921 6154 c0 -11 3 -14 6 -6 3 7 2 16 -1 19 -3 4 -6 -2 -5 -13z"/>
<path d="M2917 3763 c-5 -8 26 -53 36 -53 3 0 3 9 0 20 -6 23 -29 44 -36 33z"/>
<path d="M3093 3613 c4 -20 1 -23 -24 -23 -16 0 -29 5 -29 10 0 6 -7 10 -16
10 -11 0 -14 -5 -9 -17 4 -10 12 -30 17 -45 5 -16 14 -28 19 -28 5 0 9 -6 9
-14 0 -7 18 -33 39 -56 l39 -43 -1 40 c-2 31 -5 39 -18 36 -27 -7 -32 58 -6
78 l20 17 -23 28 c-20 26 -22 27 -17 7z"/>
<path d="M3046 3455 c4 -8 11 -15 16 -15 6 0 5 6 -2 15 -7 8 -14 15 -16 15 -2
0 -1 -7 2 -15z"/>
<path d="M3150 3460 c0 -5 5 -10 11 -10 5 0 7 5 4 10 -3 6 -8 10 -11 10 -2 0
-4 -4 -4 -10z"/>
<path d="M3170 3421 c0 -6 5 -13 10 -16 6 -3 10 1 10 9 0 9 -4 16 -10 16 -5 0
-10 -4 -10 -9z"/>
</g>
</svg>
